{
    "asset" : {
        "generator" : "Khronos glTF Blender I/O v1.8.19",
        "version" : "2.0"
    },
    "scene" : 0,
    "scenes" : [
        {
            "name" : "Scene",
            "nodes" : [
                0
            ]
        }
    ],
    "nodes" : [
        {
            "mesh" : 0,
            "name" : "Mesh_0"
        }
    ],
    "animations" : [
        {
            "channels" : [
                {
                    "sampler" : 0,
                    "target" : {
                        "node" : 0,
                        "path" : "weights"
                    }
                }
            ],
            "name" : "flamingo_flyA_",
            "samplers" : [
                {
                    "input" : 33,
                    "interpolation" : "LINEAR",
                    "output" : 34
                }
            ]
        }
    ],
    "materials" : [
        {
            "name" : "Material_0",
            "pbrMetallicRoughness" : {
                "metallicFactor" : 0
            }
        }
    ],
    "meshes" : [
        {
            "extras" : {
                "targetNames" : [
                    "flamingo_flyA_000",
                    "flamingo_flyA_001",
                    "flamingo_flyA_002",
                    "flamingo_flyA_003",
                    "flamingo_flyA_004",
                    "flamingo_flyA_005",
                    "flamingo_flyA_006",
                    "flamingo_flyA_007",
                    "flamingo_flyA_008",
                    "flamingo_flyA_009",
                    "flamingo_flyA_010",
                    "flamingo_flyA_011",
                    "flamingo_flyA_012",
                    "flamingo_flyA_013"
                ]
            },
            "name" : "Mesh_0",
            "primitives" : [
                {
                    "attributes" : {
                        "POSITION" : 0,
                        "NORMAL" : 1,
                        "TEXCOORD_0" : 2,
                        "COLOR_0" : 3
                    },
                    "indices" : 4,
                    "material" : 0,
                    "targets" : [
                        {
                            "POSITION" : 5,
                            "NORMAL" : 6
                        },
                        {
                            "POSITION" : 7,
                            "NORMAL" : 8
                        },
                        {
                            "POSITION" : 9,
                            "NORMAL" : 10
                        },
                        {
                            "POSITION" : 11,
                            "NORMAL" : 12
                        },
                        {
                            "POSITION" : 13,
                            "NORMAL" : 14
                        },
                        {
                            "POSITION" : 15,
                            "NORMAL" : 16
                        },
                        {
                            "POSITION" : 17,
                            "NORMAL" : 18
                        },
                        {
                            "POSITION" : 19,
                            "NORMAL" : 20
                        },
                        {
                            "POSITION" : 21,
                            "NORMAL" : 22
                        },
                        {
                            "POSITION" : 23,
                            "NORMAL" : 24
                        },
                        {
                            "POSITION" : 25,
                            "NORMAL" : 26
                        },
                        {
                            "POSITION" : 27,
                            "NORMAL" : 28
                        },
                        {
                            "POSITION" : 29,
                            "NORMAL" : 30
                        },
                        {
                            "POSITION" : 31,
                            "NORMAL" : 32
                        }
                    ]
                }
            ],
            "weights" : [
                1,
                0,
                0,
                0,
                0,
                0,
                0,
                0,
                0,
                0,
                0,
                0,
                0,
                0
            ]
        }
    ],
    "accessors" : [
        {
            "bufferView" : 0,
            "componentType" : 5126,
            "count" : 1626,
            "max" : [
                26.700000762939453,
                10.699999809265137,
                100.4000015258789
            ],
            "min" : [
                -25.5,
                -78.4000015258789,
                -76.19999694824219
            ],
            "type" : "VEC3"
        },
        {
            "bufferView" : 1,
            "componentType" : 5126,
            "count" : 1626,
            "type" : "VEC3"
        },
        {
            "bufferView" : 2,
            "componentType" : 5126,
            "count" : 1626,
            "type" : "VEC2"
        },
        {
            "bufferView" : 3,
            "componentType" : 5123,
            "count" : 1626,
            "normalized" : true,
            "type" : "VEC4"
        },
        {
            "bufferView" : 4,
            "componentType" : 5123,
            "count" : 1626,
            "type" : "SCALAR"
        },
        {
            "bufferView" : 5,
            "componentType" : 5126,
            "count" : 1626,
            "max" : [
                0,
                0,
                0
            ],
            "min" : [
                0,
                0,
                0
            ],
            "type" : "VEC3"
        },
        {
            "bufferView" : 6,
            "componentType" : 5126,
            "count" : 1626,
            "type" : "VEC3"
        },
        {
            "bufferView" : 7,
            "componentType" : 5126,
            "count" : 1626,
            "max" : [
                2.3999996185302734,
                3.799999237060547,
                0.7000007629394531
            ],
            "min" : [
                -3.6000003814697266,
                0.5999984741210938,
                -3.200000762939453
            ],
            "type" : "VEC3"
        },
        {
            "bufferView" : 8,
            "componentType" : 5126,
            "count" : 1626,
            "type" : "VEC3"
        },
        {
            "bufferView" : 9,
            "componentType" : 5126,
            "count" : 1626,
            "max" : [
                11.699999809265137,
                11.200000762939453,
                2.8000011444091797
            ],
            "min" : [
                -13.700000762939453,
                0.7999999523162842,
                -3.5
            ],
            "type" : "VEC3"
        },
        {
            "bufferView" : 10,
            "componentType" : 5126,
            "count" : 1626,
            "type" : "VEC3"
        },
        {
            "bufferView" : 11,
            "componentType" : 5126,
            "count" : 1626,
            "max" : [
                36.29999923706055,
                22.399999618530273,
                3.9000000953674316
            ],
            "min" : [
                -36.69999694824219,
                -0.40000003576278687,
                -4
            ],
            "type" : "VEC3"
        },
        {
            "bufferView" : 12,
            "componentType" : 5126,
            "count" : 1626,
            "type" : "VEC3"
        },
        {
            "bufferView" : 13,
            "componentType" : 5126,
            "count" : 1626,
            "max" : [
                72.5,
                41.5,
                4
            ],
            "min" : [
                -68.5999984741211,
                -2.4000000953674316,
                -9.800000190734863
            ],
            "type" : "VEC3"
        },
        {
            "bufferView" : 14,
            "componentType" : 5126,
            "count" : 1626,
            "type" : "VEC3"
        },
        {
            "bufferView" : 15,
            "componentType" : 5126,
            "count" : 1626,
            "max" : [
                88.79999542236328,
                94.10000610351562,
                5.300000190734863
            ],
            "min" : [
                -89.69999694824219,
                -4.699999809265137,
                -12.399999618530273
            ],
            "type" : "VEC3"
        },
        {
            "bufferView" : 16,
            "componentType" : 5126,
            "count" : 1626,
            "type" : "VEC3"
        },
        {
            "bufferView" : 17,
            "componentType" : 5126,
            "count" : 1626,
            "max" : [
                64.79999542236328,
                143.10000610351562,
                6.199999809265137
            ],
            "min" : [
                -75,
                -6.800000190734863,
                -9.899999618530273
            ],
            "type" : "VEC3"
        },
        {
            "bufferView" : 18,
            "componentType" : 5126,
            "count" : 1626,
            "type" : "VEC3"
        },
        {
            "bufferView" : 19,
            "componentType" : 5126,
            "count" : 1626,
            "max" : [
                31.200000762939453,
                160.39999389648438,
                6.5
            ],
            "min" : [
                -39.70000076293945,
                -8.300000190734863,
                -6.599999904632568
            ],
            "type" : "VEC3"
        },
        {
            "bufferView" : 20,
            "componentType" : 5126,
            "count" : 1626,
            "type" : "VEC3"
        },
        {
            "bufferView" : 21,
            "componentType" : 5126,
            "count" : 1626,
            "max" : [
                19.30000114440918,
                163.5,
                5.800000190734863
            ],
            "min" : [
                -19.5,
                -9.100000381469727,
                -9.300000190734863
            ],
            "type" : "VEC3"
        },
        {
            "bufferView" : 22,
            "componentType" : 5126,
            "count" : 1626,
            "type" : "VEC3"
        },
        {
            "bufferView" : 23,
            "componentType" : 5126,
            "count" : 1626,
            "max" : [
                32.400001525878906,
                159.20001220703125,
                4.599999904632568
            ],
            "min" : [
                -27,
                -8.899999618530273,
                -10.199999809265137
            ],
            "type" : "VEC3"
        },
        {
            "bufferView" : 24,
            "componentType" : 5126,
            "count" : 1626,
            "type" : "VEC3"
        },
        {
            "bufferView" : 25,
            "componentType" : 5126,
            "count" : 1626,
            "max" : [
                66.69999694824219,
                137.10000610351562,
                3.1999998092651367
            ],
            "min" : [
                -60.70000076293945,
                -7.800000190734863,
                -8.999999046325684
            ],
            "type" : "VEC3"
        },
        {
            "bufferView" : 26,
            "componentType" : 5126,
            "count" : 1626,
            "type" : "VEC3"
        },
        {
            "bufferView" : 27,
            "componentType" : 5126,
            "count" : 1626,
            "max" : [
                81.0999984741211,
                83.5999984741211,
                8.900001525878906
            ],
            "min" : [
                -82.5999984741211,
                -6.099999904632568,
                -5.199999809265137
            ],
            "type" : "VEC3"
        },
        {
            "bufferView" : 28,
            "componentType" : 5126,
            "count" : 1626,
            "type" : "VEC3"
        },
        {
            "bufferView" : 29,
            "componentType" : 5126,
            "count" : 1626,
            "max" : [
                53.70000076293945,
                26.300003051757812,
                11.400001525878906
            ],
            "min" : [
                -61.69999694824219,
                -4.100000381469727,
                -1.8000001907348633
            ],
            "type" : "VEC3"
        },
        {
            "bufferView" : 30,
            "componentType" : 5126,
            "count" : 1626,
            "type" : "VEC3"
        },
        {
            "bufferView" : 31,
            "componentType" : 5126,
            "count" : 1626,
            "max" : [
                15.90000057220459,
                2.6000022888183594,
                5.80000114440918
            ],
            "min" : [
                -20.200000762939453,
                -1.899999976158142,
                -0.5
            ],
            "type" : "VEC3"
        },
        {
            "bufferView" : 32,
            "componentType" : 5126,
            "count" : 1626,
            "type" : "VEC3"
        },
        {
            "bufferView" : 33,
            "componentType" : 5126,
            "count" : 34,
            "max" : [
                1.375
            ],
            "min" : [
                0
            ],
            "type" : "SCALAR"
        },
        {
            "bufferView" : 34,
            "componentType" : 5126,
            "count" : 476,
            "type" : "SCALAR"
        }
    ],
    "bufferViews" : [
        {
            "buffer" : 0,
            "byteLength" : 19512,
            "byteOffset" : 0
        },
        {
            "buffer" : 0,
            "byteLength" : 19512,
            "byteOffset" : 19512
        },
        {
            "buffer" : 0,
            "byteLength" : 13008,
            "byteOffset" : 39024
        },
        {
            "buffer" : 0,
            "byteLength" : 13008,
            "byteOffset" : 52032
        },
        {
            "buffer" : 0,
            "byteLength" : 3252,
            "byteOffset" : 65040
        },
        {
            "buffer" : 0,
            "byteLength" : 19512,
            "byteOffset" : 68292
        },
        {
            "buffer" : 0,
            "byteLength" : 19512,
            "byteOffset" : 87804
        },
        {
            "buffer" : 0,
            "byteLength" : 19512,
            "byteOffset" : 107316
        },
        {
            "buffer" : 0,
            "byteLength" : 19512,
            "byteOffset" : 126828
        },
        {
            "buffer" : 0,
            "byteLength" : 19512,
            "byteOffset" : 146340
        },
        {
            "buffer" : 0,
            "byteLength" : 19512,
            "byteOffset" : 165852
        },
        {
            "buffer" : 0,
            "byteLength" : 19512,
            "byteOffset" : 185364
        },
        {
            "buffer" : 0,
            "byteLength" : 19512,
            "byteOffset" : 204876
        },
        {
            "buffer" : 0,
            "byteLength" : 19512,
            "byteOffset" : 224388
        },
        {
            "buffer" : 0,
            "byteLength" : 19512,
            "byteOffset" : 243900
        },
        {
            "buffer" : 0,
            "byteLength" : 19512,
            "byteOffset" : 263412
        },
        {
            "buffer" : 0,
            "byteLength" : 19512,
            "byteOffset" : 282924
        },
        {
            "buffer" : 0,
            "byteLength" : 19512,
            "byteOffset" : 302436
        },
        {
            "buffer" : 0,
            "byteLength" : 19512,
            "byteOffset" : 321948
        },
        {
            "buffer" : 0,
            "byteLength" : 19512,
            "byteOffset" : 341460
        },
        {
            "buffer" : 0,
            "byteLength" : 19512,
            "byteOffset" : 360972
        },
        {
            "buffer" : 0,
            "byteLength" : 19512,
            "byteOffset" : 380484
        },
        {
            "buffer" : 0,
            "byteLength" : 19512,
            "byteOffset" : 399996
        },
        {
            "buffer" : 0,
            "byteLength" : 19512,
            "byteOffset" : 419508
        },
        {
            "buffer" : 0,
            "byteLength" : 19512,
            "byteOffset" : 439020
        },
        {
            "buffer" : 0,
            "byteLength" : 19512,
            "byteOffset" : 458532
        },
        {
            "buffer" : 0,
            "byteLength" : 19512,
            "byteOffset" : 478044
        },
        {
            "buffer" : 0,
            "byteLength" : 19512,
            "byteOffset" : 497556
        },
        {
            "buffer" : 0,
            "byteLength" : 19512,
            "byteOffset" : 517068
        },
        {
            "buffer" : 0,
            "byteLength" : 19512,
            "byteOffset" : 536580
        },
        {
            "buffer" : 0,
            "byteLength" : 19512,
            "byteOffset" : 556092
        },
        {
            "buffer" : 0,
            "byteLength" : 19512,
            "byteOffset" : 575604
        },
        {
            "buffer" : 0,
            "byteLength" : 19512,
            "byteOffset" : 595116
        },
        {
            "buffer" : 0,
            "byteLength" : 136,
            "byteOffset" : 614628
        },
        {
            "buffer" : 0,
            "byteLength" : 1904,
            "byteOffset" : 614764
        }
    ],
    "buffers" : [
        {
            "byteLength" : 616668,
            "uri" : "data:application/octet-stream;base64,"
        }
    ]
}
