{
    "asset" : {
        "generator" : "Khronos glTF Blender I/O v1.8.19",
        "version" : "2.0"
    },
    "scene" : 0,
    "scenes" : [
        {
            "name" : "Scene",
            "nodes" : [
                0
            ]
        }
    ],
    "nodes" : [
        {
            "mesh" : 0,
            "name" : "Mesh_0"
        }
    ],
    "animations" : [
        {
            "channels" : [
                {
                    "sampler" : 0,
                    "target" : {
                        "node" : 0,
                        "path" : "weights"
                    }
                }
            ],
            "name" : "horse_A_",
            "samplers" : [
                {
                    "input" : 35,
                    "interpolation" : "LINEAR",
                    "output" : 36
                }
            ]
        }
    ],
    "materials" : [
        {
            "name" : "Material_0",
            "pbrMetallicRoughness" : {
                "metallicFactor" : 0
            }
        }
    ],
    "meshes" : [
        {
            "extras" : {
                "targetNames" : [
                    "horse_A_001",
                    "horse_A_002",
                    "horse_A_003",
                    "horse_A_004",
                    "horse_A_005",
                    "horse_A_006",
                    "horse_A_007",
                    "horse_A_008",
                    "horse_A_009",
                    "horse_A_010",
                    "horse_A_011",
                    "horse_A_012",
                    "horse_A_013",
                    "horse_A_014",
                    "horse_A_015"
                ]
            },
            "name" : "Mesh_0",
            "primitives" : [
                {
                    "attributes" : {
                        "POSITION" : 0,
                        "NORMAL" : 1,
                        "TEXCOORD_0" : 2,
                        "COLOR_0" : 3
                    },
                    "indices" : 4,
                    "material" : 0,
                    "targets" : [
                        {
                            "POSITION" : 5,
                            "NORMAL" : 6
                        },
                        {
                            "POSITION" : 7,
                            "NORMAL" : 8
                        },
                        {
                            "POSITION" : 9,
                            "NORMAL" : 10
                        },
                        {
                            "POSITION" : 11,
                            "NORMAL" : 12
                        },
                        {
                            "POSITION" : 13,
                            "NORMAL" : 14
                        },
                        {
                            "POSITION" : 15,
                            "NORMAL" : 16
                        },
                        {
                            "POSITION" : 17,
                            "NORMAL" : 18
                        },
                        {
                            "POSITION" : 19,
                            "NORMAL" : 20
                        },
                        {
                            "POSITION" : 21,
                            "NORMAL" : 22
                        },
                        {
                            "POSITION" : 23,
                            "NORMAL" : 24
                        },
                        {
                            "POSITION" : 25,
                            "NORMAL" : 26
                        },
                        {
                            "POSITION" : 27,
                            "NORMAL" : 28
                        },
                        {
                            "POSITION" : 29,
                            "NORMAL" : 30
                        },
                        {
                            "POSITION" : 31,
                            "NORMAL" : 32
                        },
                        {
                            "POSITION" : 33,
                            "NORMAL" : 34
                        }
                    ]
                }
            ],
            "weights" : [
                1,
                0,
                0,
                0,
                0,
                0,
                0,
                0,
                0,
                0,
                0,
                0,
                0,
                0,
                0
            ]
        }
    ],
    "accessors" : [
        {
            "bufferView" : 0,
            "componentType" : 5126,
            "count" : 796,
            "max" : [
                32.599998474121094,
                183.10000610351562,
                134.89999389648438
            ],
            "min" : [
                -28.5,
                0.800000011920929,
                -187.39999389648438
            ],
            "type" : "VEC3"
        },
        {
            "bufferView" : 1,
            "componentType" : 5126,
            "count" : 796,
            "type" : "VEC3"
        },
        {
            "bufferView" : 2,
            "componentType" : 5126,
            "count" : 796,
            "type" : "VEC2"
        },
        {
            "bufferView" : 3,
            "componentType" : 5123,
            "count" : 796,
            "normalized" : true,
            "type" : "VEC4"
        },
        {
            "bufferView" : 4,
            "componentType" : 5123,
            "count" : 2952,
            "type" : "SCALAR"
        },
        {
            "bufferView" : 5,
            "componentType" : 5126,
            "count" : 796,
            "max" : [
                0,
                0,
                0
            ],
            "min" : [
                0,
                0,
                0
            ],
            "type" : "VEC3"
        },
        {
            "bufferView" : 6,
            "componentType" : 5126,
            "count" : 796,
            "type" : "VEC3"
        },
        {
            "bufferView" : 7,
            "componentType" : 5126,
            "count" : 796,
            "max" : [
                4.399999618530273,
                18.200000762939453,
                1.1999969482421875
            ],
            "min" : [
                -2,
                -9.5,
                -33.20000457763672
            ],
            "type" : "VEC3"
        },
        {
            "bufferView" : 8,
            "componentType" : 5126,
            "count" : 796,
            "type" : "VEC3"
        },
        {
            "bufferView" : 9,
            "componentType" : 5126,
            "count" : 796,
            "max" : [
                9.5,
                38.70000076293945,
                13
            ],
            "min" : [
                -4.400000095367432,
                -25.400001525878906,
                -72.9000015258789
            ],
            "type" : "VEC3"
        },
        {
            "bufferView" : 10,
            "componentType" : 5126,
            "count" : 796,
            "type" : "VEC3"
        },
        {
            "bufferView" : 11,
            "componentType" : 5126,
            "count" : 796,
            "max" : [
                14.300000190734863,
                54.80000305175781,
                44.29998779296875
            ],
            "min" : [
                -6.800000190734863,
                -32.70000076293945,
                -90.9000015258789
            ],
            "type" : "VEC3"
        },
        {
            "bufferView" : 12,
            "componentType" : 5126,
            "count" : 796,
            "type" : "VEC3"
        },
        {
            "bufferView" : 13,
            "componentType" : 5126,
            "count" : 796,
            "max" : [
                15.700000762939453,
                50.900001525878906,
                84.09999084472656
            ],
            "min" : [
                -6.800000190734863,
                -28.899999618530273,
                -107.09999084472656
            ],
            "type" : "VEC3"
        },
        {
            "bufferView" : 14,
            "componentType" : 5126,
            "count" : 796,
            "type" : "VEC3"
        },
        {
            "bufferView" : 15,
            "componentType" : 5126,
            "count" : 796,
            "max" : [
                16.100000381469727,
                58.10000228881836,
                124.89999389648438
            ],
            "min" : [
                -7.399999618530273,
                -24.5,
                -122.89999389648438
            ],
            "type" : "VEC3"
        },
        {
            "bufferView" : 16,
            "componentType" : 5126,
            "count" : 796,
            "type" : "VEC3"
        },
        {
            "bufferView" : 17,
            "componentType" : 5126,
            "count" : 796,
            "max" : [
                16.799999237060547,
                60.10000228881836,
                162.39999389648438
            ],
            "min" : [
                -7.200000762939453,
                -15.80000114440918,
                -146
            ],
            "type" : "VEC3"
        },
        {
            "bufferView" : 18,
            "componentType" : 5126,
            "count" : 796,
            "type" : "VEC3"
        },
        {
            "bufferView" : 19,
            "componentType" : 5126,
            "count" : 796,
            "max" : [
                17.600000381469727,
                57.10000228881836,
                185.5
            ],
            "min" : [
                -7.300000190734863,
                -10.800003051757812,
                -161.39999389648438
            ],
            "type" : "VEC3"
        },
        {
            "bufferView" : 20,
            "componentType" : 5126,
            "count" : 796,
            "type" : "VEC3"
        },
        {
            "bufferView" : 21,
            "componentType" : 5126,
            "count" : 796,
            "max" : [
                20.299999237060547,
                54.400001525878906,
                199.6999969482422
            ],
            "min" : [
                -7.800000190734863,
                -17.599998474121094,
                -150.39999389648438
            ],
            "type" : "VEC3"
        },
        {
            "bufferView" : 22,
            "componentType" : 5126,
            "count" : 796,
            "type" : "VEC3"
        },
        {
            "bufferView" : 23,
            "componentType" : 5126,
            "count" : 796,
            "max" : [
                22,
                49.29999923706055,
                196.09999084472656
            ],
            "min" : [
                -8.100000381469727,
                -29.80000114440918,
                -142.09999084472656
            ],
            "type" : "VEC3"
        },
        {
            "bufferView" : 24,
            "componentType" : 5126,
            "count" : 796,
            "type" : "VEC3"
        },
        {
            "bufferView" : 25,
            "componentType" : 5126,
            "count" : 796,
            "max" : [
                19.399999618530273,
                36.89999771118164,
                158.89999389648438
            ],
            "min" : [
                -8.40000057220459,
                -42.5,
                -136.1999969482422
            ],
            "type" : "VEC3"
        },
        {
            "bufferView" : 26,
            "componentType" : 5126,
            "count" : 796,
            "type" : "VEC3"
        },
        {
            "bufferView" : 27,
            "componentType" : 5126,
            "count" : 796,
            "max" : [
                14.5,
                34,
                122.19999694824219
            ],
            "min" : [
                -8.09999942779541,
                -46.400001525878906,
                -120.09999084472656
            ],
            "type" : "VEC3"
        },
        {
            "bufferView" : 28,
            "componentType" : 5126,
            "count" : 796,
            "type" : "VEC3"
        },
        {
            "bufferView" : 29,
            "componentType" : 5126,
            "count" : 796,
            "max" : [
                6.600000381469727,
                30.000001907348633,
                88.0999984741211
            ],
            "min" : [
                -7.300000190734863,
                -45.29999923706055,
                -92.99999237060547
            ],
            "type" : "VEC3"
        },
        {
            "bufferView" : 30,
            "componentType" : 5126,
            "count" : 796,
            "type" : "VEC3"
        },
        {
            "bufferView" : 31,
            "componentType" : 5126,
            "count" : 796,
            "max" : [
                6.40000057220459,
                20.5,
                73.19999694824219
            ],
            "min" : [
                -6,
                -44.10000228881836,
                -53.899993896484375
            ],
            "type" : "VEC3"
        },
        {
            "bufferView" : 32,
            "componentType" : 5126,
            "count" : 796,
            "type" : "VEC3"
        },
        {
            "bufferView" : 33,
            "componentType" : 5126,
            "count" : 796,
            "max" : [
                3,
                9.5,
                45.400001525878906
            ],
            "min" : [
                -2.6999988555908203,
                -26.899999618530273,
                -23.79999542236328
            ],
            "type" : "VEC3"
        },
        {
            "bufferView" : 34,
            "componentType" : 5126,
            "count" : 796,
            "type" : "VEC3"
        },
        {
            "bufferView" : 35,
            "componentType" : 5126,
            "count" : 37,
            "max" : [
                1.5
            ],
            "min" : [
                0
            ],
            "type" : "SCALAR"
        },
        {
            "bufferView" : 36,
            "componentType" : 5126,
            "count" : 555,
            "type" : "SCALAR"
        }
    ],
    "bufferViews" : [
        {
            "buffer" : 0,
            "byteLength" : 9552,
            "byteOffset" : 0
        },
        {
            "buffer" : 0,
            "byteLength" : 9552,
            "byteOffset" : 9552
        },
        {
            "buffer" : 0,
            "byteLength" : 6368,
            "byteOffset" : 19104
        },
        {
            "buffer" : 0,
            "byteLength" : 6368,
            "byteOffset" : 25472
        },
        {
            "buffer" : 0,
            "byteLength" : 5904,
            "byteOffset" : 31840
        },
        {
            "buffer" : 0,
            "byteLength" : 9552,
            "byteOffset" : 37744
        },
        {
            "buffer" : 0,
            "byteLength" : 9552,
            "byteOffset" : 47296
        },
        {
            "buffer" : 0,
            "byteLength" : 9552,
            "byteOffset" : 56848
        },
        {
            "buffer" : 0,
            "byteLength" : 9552,
            "byteOffset" : 66400
        },
        {
            "buffer" : 0,
            "byteLength" : 9552,
            "byteOffset" : 75952
        },
        {
            "buffer" : 0,
            "byteLength" : 9552,
            "byteOffset" : 85504
        },
        {
            "buffer" : 0,
            "byteLength" : 9552,
            "byteOffset" : 95056
        },
        {
            "buffer" : 0,
            "byteLength" : 9552,
            "byteOffset" : 104608
        },
        {
            "buffer" : 0,
            "byteLength" : 9552,
            "byteOffset" : 114160
        },
        {
            "buffer" : 0,
            "byteLength" : 9552,
            "byteOffset" : 123712
        },
        {
            "buffer" : 0,
            "byteLength" : 9552,
            "byteOffset" : 133264
        },
        {
            "buffer" : 0,
            "byteLength" : 9552,
            "byteOffset" : 142816
        },
        {
            "buffer" : 0,
            "byteLength" : 9552,
            "byteOffset" : 152368
        },
        {
            "buffer" : 0,
            "byteLength" : 9552,
            "byteOffset" : 161920
        },
        {
            "buffer" : 0,
            "byteLength" : 9552,
            "byteOffset" : 171472
        },
        {
            "buffer" : 0,
            "byteLength" : 9552,
            "byteOffset" : 181024
        },
        {
            "buffer" : 0,
            "byteLength" : 9552,
            "byteOffset" : 190576
        },
        {
            "buffer" : 0,
            "byteLength" : 9552,
            "byteOffset" : 200128
        },
        {
            "buffer" : 0,
            "byteLength" : 9552,
            "byteOffset" : 209680
        },
        {
            "buffer" : 0,
            "byteLength" : 9552,
            "byteOffset" : 219232
        },
        {
            "buffer" : 0,
            "byteLength" : 9552,
            "byteOffset" : 228784
        },
        {
            "buffer" : 0,
            "byteLength" : 9552,
            "byteOffset" : 238336
        },
        {
            "buffer" : 0,
            "byteLength" : 9552,
            "byteOffset" : 247888
        },
        {
            "buffer" : 0,
            "byteLength" : 9552,
            "byteOffset" : 257440
        },
        {
            "buffer" : 0,
            "byteLength" : 9552,
            "byteOffset" : 266992
        },
        {
            "buffer" : 0,
            "byteLength" : 9552,
            "byteOffset" : 276544
        },
        {
            "buffer" : 0,
            "byteLength" : 9552,
            "byteOffset" : 286096
        },
        {
            "buffer" : 0,
            "byteLength" : 9552,
            "byteOffset" : 295648
        },
        {
            "buffer" : 0,
            "byteLength" : 9552,
            "byteOffset" : 305200
        },
        {
            "buffer" : 0,
            "byteLength" : 9552,
            "byteOffset" : 314752
        },
        {
            "buffer" : 0,
            "byteLength" : 148,
            "byteOffset" : 324304
        },
        {
            "buffer" : 0,
            "byteLength" : 2220,
            "byteOffset" : 324452
        }
    ],
    "buffers" : [
        {
            "byteLength" : 326672,
            "uri" : "data:application/octet-stream;base64,"
        }
    ]
}
