{
    "asset" : {
        "generator" : "Khronos glTF Blender I/O v1.8.19",
        "version" : "2.0"
    },
    "scene" : 0,
    "scenes" : [
        {
            "name" : "Scene",
            "nodes" : [
                7
            ]
        }
    ],
    "nodes" : [
        {
            "name" : "Bone.005",
            "rotation" : [
                0.18426018953323364,
                1.4817221938301373e-07,
                -9.343752854773513e-11,
                0.9828775525093079
            ],
            "translation" : [
                -3.297362383136715e-14,
                0.7423890233039856,
                1.862645371275562e-09
            ]
        },
        {
            "children" : [
                0
            ],
            "name" : "Bone.002",
            "rotation" : [
                0.13603852689266205,
                -2.3866352449886108e-08,
                -1.646177061331855e-08,
                0.9907035827636719
            ],
            "scale" : [
                1,
                1,
                1.0000001192092896
            ],
            "translation" : [
                -2.2101385053151755e-15,
                0.9043454527854919,
                -1.0372178671502752e-08
            ]
        },
        {
            "children" : [
                1
            ],
            "name" : "Bone.001",
            "rotation" : [
                2.882246219471085e-09,
                0.9994868636131287,
                -0.032032471150159836,
                1.9460726718989463e-07
            ],
            "scale" : [
                1,
                1.0000003576278687,
                0.9999999403953552
            ],
            "translation" : [
                2.1444865062327997e-14,
                1.0862770080566406,
                -1.509908820196415e-08
            ]
        },
        {
            "name" : "Bone.003",
            "rotation" : [
                -0.46226099133491516,
                -0.556800127029419,
                -0.23282432556152344,
                0.6496779322624207
            ],
            "scale" : [
                1,
                0.9999999403953552,
                0.9999999403953552
            ],
            "translation" : [
                0.28089824318885803,
                0.9403451085090637,
                -0.12864546477794647
            ]
        },
        {
            "name" : "Bone.004",
            "rotation" : [
                -0.47361552715301514,
                0.5558608770370483,
                0.24682475626468658,
                0.6370123028755188
            ],
            "scale" : [
                1.0000001192092896,
                0.9999999403953552,
                0.9999998807907104
            ],
            "translation" : [
                -0.25935661792755127,
                0.9577978253364563,
                -0.1292915642261505
            ]
        },
        {
            "children" : [
                2,
                3,
                4
            ],
            "name" : "Bone",
            "rotation" : [
                0.039713285863399506,
                1.4223084576769907e-07,
                5.652916357234972e-09,
                0.9992111325263977
            ],
            "scale" : [
                1,
                0.9999998807907104,
                0.9999998807907104
            ],
            "translation" : [
                1.2564861151531659e-08,
                -2.682209014892578e-07,
                -3.2782554626464844e-07
            ]
        },
        {
            "mesh" : 0,
            "name" : "orca",
            "skin" : 0
        },
        {
            "children" : [
                6,
                5
            ],
            "name" : "Armature.001",
            "rotation" : [
                -0.7193397283554077,
                0,
                0,
                0.6946584582328796
            ],
            "scale" : [
                2.6016106605529785,
                2.6016106605529785,
                2.6016106605529785
            ],
            "translation" : [
                0,
                -0.12034916877746582,
                3.479184865951538
            ]
        }
    ],
    "animations" : [
        {
            "channels" : [
                {
                    "sampler" : 0,
                    "target" : {
                        "node" : 5,
                        "path" : "translation"
                    }
                },
                {
                    "sampler" : 1,
                    "target" : {
                        "node" : 5,
                        "path" : "rotation"
                    }
                },
                {
                    "sampler" : 2,
                    "target" : {
                        "node" : 2,
                        "path" : "translation"
                    }
                },
                {
                    "sampler" : 3,
                    "target" : {
                        "node" : 2,
                        "path" : "rotation"
                    }
                },
                {
                    "sampler" : 4,
                    "target" : {
                        "node" : 1,
                        "path" : "translation"
                    }
                },
                {
                    "sampler" : 5,
                    "target" : {
                        "node" : 1,
                        "path" : "rotation"
                    }
                },
                {
                    "sampler" : 6,
                    "target" : {
                        "node" : 0,
                        "path" : "translation"
                    }
                },
                {
                    "sampler" : 7,
                    "target" : {
                        "node" : 0,
                        "path" : "rotation"
                    }
                },
                {
                    "sampler" : 8,
                    "target" : {
                        "node" : 3,
                        "path" : "translation"
                    }
                },
                {
                    "sampler" : 9,
                    "target" : {
                        "node" : 3,
                        "path" : "rotation"
                    }
                },
                {
                    "sampler" : 10,
                    "target" : {
                        "node" : 4,
                        "path" : "translation"
                    }
                },
                {
                    "sampler" : 11,
                    "target" : {
                        "node" : 4,
                        "path" : "rotation"
                    }
                }
            ],
            "name" : "ATTACK",
            "samplers" : [
                {
                    "input" : 7,
                    "interpolation" : "LINEAR",
                    "output" : 8
                },
                {
                    "input" : 7,
                    "interpolation" : "LINEAR",
                    "output" : 9
                },
                {
                    "input" : 10,
                    "interpolation" : "LINEAR",
                    "output" : 11
                },
                {
                    "input" : 7,
                    "interpolation" : "LINEAR",
                    "output" : 12
                },
                {
                    "input" : 10,
                    "interpolation" : "LINEAR",
                    "output" : 13
                },
                {
                    "input" : 7,
                    "interpolation" : "LINEAR",
                    "output" : 14
                },
                {
                    "input" : 10,
                    "interpolation" : "LINEAR",
                    "output" : 15
                },
                {
                    "input" : 7,
                    "interpolation" : "LINEAR",
                    "output" : 16
                },
                {
                    "input" : 10,
                    "interpolation" : "LINEAR",
                    "output" : 17
                },
                {
                    "input" : 7,
                    "interpolation" : "LINEAR",
                    "output" : 18
                },
                {
                    "input" : 10,
                    "interpolation" : "LINEAR",
                    "output" : 19
                },
                {
                    "input" : 7,
                    "interpolation" : "LINEAR",
                    "output" : 20
                }
            ]
        },
        {
            "channels" : [
                {
                    "sampler" : 0,
                    "target" : {
                        "node" : 5,
                        "path" : "translation"
                    }
                },
                {
                    "sampler" : 1,
                    "target" : {
                        "node" : 5,
                        "path" : "rotation"
                    }
                },
                {
                    "sampler" : 2,
                    "target" : {
                        "node" : 2,
                        "path" : "translation"
                    }
                },
                {
                    "sampler" : 3,
                    "target" : {
                        "node" : 2,
                        "path" : "rotation"
                    }
                },
                {
                    "sampler" : 4,
                    "target" : {
                        "node" : 1,
                        "path" : "translation"
                    }
                },
                {
                    "sampler" : 5,
                    "target" : {
                        "node" : 1,
                        "path" : "rotation"
                    }
                },
                {
                    "sampler" : 6,
                    "target" : {
                        "node" : 0,
                        "path" : "translation"
                    }
                },
                {
                    "sampler" : 7,
                    "target" : {
                        "node" : 0,
                        "path" : "rotation"
                    }
                },
                {
                    "sampler" : 8,
                    "target" : {
                        "node" : 3,
                        "path" : "translation"
                    }
                },
                {
                    "sampler" : 9,
                    "target" : {
                        "node" : 3,
                        "path" : "rotation"
                    }
                },
                {
                    "sampler" : 10,
                    "target" : {
                        "node" : 4,
                        "path" : "translation"
                    }
                },
                {
                    "sampler" : 11,
                    "target" : {
                        "node" : 4,
                        "path" : "rotation"
                    }
                }
            ],
            "name" : "swim",
            "samplers" : [
                {
                    "input" : 21,
                    "interpolation" : "LINEAR",
                    "output" : 22
                },
                {
                    "input" : 23,
                    "interpolation" : "LINEAR",
                    "output" : 24
                },
                {
                    "input" : 21,
                    "interpolation" : "LINEAR",
                    "output" : 25
                },
                {
                    "input" : 23,
                    "interpolation" : "LINEAR",
                    "output" : 26
                },
                {
                    "input" : 21,
                    "interpolation" : "LINEAR",
                    "output" : 27
                },
                {
                    "input" : 23,
                    "interpolation" : "LINEAR",
                    "output" : 28
                },
                {
                    "input" : 21,
                    "interpolation" : "LINEAR",
                    "output" : 29
                },
                {
                    "input" : 23,
                    "interpolation" : "LINEAR",
                    "output" : 30
                },
                {
                    "input" : 21,
                    "interpolation" : "LINEAR",
                    "output" : 31
                },
                {
                    "input" : 21,
                    "interpolation" : "LINEAR",
                    "output" : 32
                },
                {
                    "input" : 21,
                    "interpolation" : "LINEAR",
                    "output" : 33
                },
                {
                    "input" : 21,
                    "interpolation" : "LINEAR",
                    "output" : 34
                }
            ]
        }
    ],
    "materials" : [
        {
            "doubleSided" : true,
            "name" : "whale",
            "pbrMetallicRoughness" : {
                "baseColorTexture" : {
                    "index" : 0
                }
            }
        }
    ],
    "meshes" : [
        {
            "name" : "orca",
            "primitives" : [
                {
                    "attributes" : {
                        "POSITION" : 0,
                        "NORMAL" : 1,
                        "TEXCOORD_0" : 2,
                        "JOINTS_0" : 3,
                        "WEIGHTS_0" : 4
                    },
                    "indices" : 5,
                    "material" : 0
                }
            ]
        }
    ],
    "textures" : [
        {
            "sampler" : 0,
            "source" : 0
        }
    ],
    "images" : [
        {
            "bufferView" : 6,
            "mimeType" : "image/png",
            "name" : "whale_small"
        }
    ],
    "skins" : [
        {
            "inverseBindMatrices" : 6,
            "joints" : [
                5,
                2,
                1,
                0,
                3,
                4
            ],
            "name" : "Armature.001"
        }
    ],
    "accessors" : [
        {
            "bufferView" : 0,
            "componentType" : 5126,
            "count" : 2047,
            "max" : [
                2.3011672496795654,
                2.9335362911224365,
                -6.937859058380127
            ],
            "min" : [
                -2.3011667728424072,
                -0.9654152393341064,
                -16.810338973999023
            ],
            "type" : "VEC3"
        },
        {
            "bufferView" : 1,
            "componentType" : 5126,
            "count" : 2047,
            "type" : "VEC3"
        },
        {
            "bufferView" : 2,
            "componentType" : 5126,
            "count" : 2047,
            "type" : "VEC2"
        },
        {
            "bufferView" : 3,
            "componentType" : 5121,
            "count" : 2047,
            "type" : "VEC4"
        },
        {
            "bufferView" : 4,
            "componentType" : 5126,
            "count" : 2047,
            "type" : "VEC4"
        },
        {
            "bufferView" : 5,
            "componentType" : 5123,
            "count" : 11994,
            "type" : "SCALAR"
        },
        {
            "bufferView" : 7,
            "componentType" : 5126,
            "count" : 6,
            "type" : "MAT4"
        },
        {
            "bufferView" : 8,
            "componentType" : 5126,
            "count" : 25,
            "max" : [
                1.0416666666666667
            ],
            "min" : [
                0.041666666666666664
            ],
            "type" : "SCALAR"
        },
        {
            "bufferView" : 9,
            "componentType" : 5126,
            "count" : 25,
            "type" : "VEC3"
        },
        {
            "bufferView" : 10,
            "componentType" : 5126,
            "count" : 25,
            "type" : "VEC4"
        },
        {
            "bufferView" : 11,
            "componentType" : 5126,
            "count" : 2,
            "max" : [
                1.0416666666666667
            ],
            "min" : [
                0.041666666666666664
            ],
            "type" : "SCALAR"
        },
        {
            "bufferView" : 12,
            "componentType" : 5126,
            "count" : 2,
            "type" : "VEC3"
        },
        {
            "bufferView" : 13,
            "componentType" : 5126,
            "count" : 25,
            "type" : "VEC4"
        },
        {
            "bufferView" : 14,
            "componentType" : 5126,
            "count" : 2,
            "type" : "VEC3"
        },
        {
            "bufferView" : 15,
            "componentType" : 5126,
            "count" : 25,
            "type" : "VEC4"
        },
        {
            "bufferView" : 16,
            "componentType" : 5126,
            "count" : 2,
            "type" : "VEC3"
        },
        {
            "bufferView" : 17,
            "componentType" : 5126,
            "count" : 25,
            "type" : "VEC4"
        },
        {
            "bufferView" : 18,
            "componentType" : 5126,
            "count" : 2,
            "type" : "VEC3"
        },
        {
            "bufferView" : 19,
            "componentType" : 5126,
            "count" : 25,
            "type" : "VEC4"
        },
        {
            "bufferView" : 20,
            "componentType" : 5126,
            "count" : 2,
            "type" : "VEC3"
        },
        {
            "bufferView" : 21,
            "componentType" : 5126,
            "count" : 25,
            "type" : "VEC4"
        },
        {
            "bufferView" : 22,
            "componentType" : 5126,
            "count" : 2,
            "max" : [
                0.375
            ],
            "min" : [
                0.041666666666666664
            ],
            "type" : "SCALAR"
        },
        {
            "bufferView" : 23,
            "componentType" : 5126,
            "count" : 2,
            "type" : "VEC3"
        },
        {
            "bufferView" : 24,
            "componentType" : 5126,
            "count" : 9,
            "max" : [
                0.375
            ],
            "min" : [
                0.041666666666666664
            ],
            "type" : "SCALAR"
        },
        {
            "bufferView" : 25,
            "componentType" : 5126,
            "count" : 9,
            "type" : "VEC4"
        },
        {
            "bufferView" : 26,
            "componentType" : 5126,
            "count" : 2,
            "type" : "VEC3"
        },
        {
            "bufferView" : 27,
            "componentType" : 5126,
            "count" : 9,
            "type" : "VEC4"
        },
        {
            "bufferView" : 28,
            "componentType" : 5126,
            "count" : 2,
            "type" : "VEC3"
        },
        {
            "bufferView" : 29,
            "componentType" : 5126,
            "count" : 9,
            "type" : "VEC4"
        },
        {
            "bufferView" : 30,
            "componentType" : 5126,
            "count" : 2,
            "type" : "VEC3"
        },
        {
            "bufferView" : 31,
            "componentType" : 5126,
            "count" : 9,
            "type" : "VEC4"
        },
        {
            "bufferView" : 32,
            "componentType" : 5126,
            "count" : 2,
            "type" : "VEC3"
        },
        {
            "bufferView" : 33,
            "componentType" : 5126,
            "count" : 2,
            "type" : "VEC4"
        },
        {
            "bufferView" : 34,
            "componentType" : 5126,
            "count" : 2,
            "type" : "VEC3"
        },
        {
            "bufferView" : 35,
            "componentType" : 5126,
            "count" : 2,
            "type" : "VEC4"
        }
    ],
    "bufferViews" : [
        {
            "buffer" : 0,
            "byteLength" : 24564,
            "byteOffset" : 0
        },
        {
            "buffer" : 0,
            "byteLength" : 24564,
            "byteOffset" : 24564
        },
        {
            "buffer" : 0,
            "byteLength" : 16376,
            "byteOffset" : 49128
        },
        {
            "buffer" : 0,
            "byteLength" : 8188,
            "byteOffset" : 65504
        },
        {
            "buffer" : 0,
            "byteLength" : 32752,
            "byteOffset" : 73692
        },
        {
            "buffer" : 0,
            "byteLength" : 23988,
            "byteOffset" : 106444
        },
        {
            "buffer" : 0,
            "byteLength" : 336120,
            "byteOffset" : 130432
        },
        {
            "buffer" : 0,
            "byteLength" : 384,
            "byteOffset" : 466552
        },
        {
            "buffer" : 0,
            "byteLength" : 100,
            "byteOffset" : 466936
        },
        {
            "buffer" : 0,
            "byteLength" : 300,
            "byteOffset" : 467036
        },
        {
            "buffer" : 0,
            "byteLength" : 400,
            "byteOffset" : 467336
        },
        {
            "buffer" : 0,
            "byteLength" : 8,
            "byteOffset" : 467736
        },
        {
            "buffer" : 0,
            "byteLength" : 24,
            "byteOffset" : 467744
        },
        {
            "buffer" : 0,
            "byteLength" : 400,
            "byteOffset" : 467768
        },
        {
            "buffer" : 0,
            "byteLength" : 24,
            "byteOffset" : 468168
        },
        {
            "buffer" : 0,
            "byteLength" : 400,
            "byteOffset" : 468192
        },
        {
            "buffer" : 0,
            "byteLength" : 24,
            "byteOffset" : 468592
        },
        {
            "buffer" : 0,
            "byteLength" : 400,
            "byteOffset" : 468616
        },
        {
            "buffer" : 0,
            "byteLength" : 24,
            "byteOffset" : 469016
        },
        {
            "buffer" : 0,
            "byteLength" : 400,
            "byteOffset" : 469040
        },
        {
            "buffer" : 0,
            "byteLength" : 24,
            "byteOffset" : 469440
        },
        {
            "buffer" : 0,
            "byteLength" : 400,
            "byteOffset" : 469464
        },
        {
            "buffer" : 0,
            "byteLength" : 8,
            "byteOffset" : 469864
        },
        {
            "buffer" : 0,
            "byteLength" : 24,
            "byteOffset" : 469872
        },
        {
            "buffer" : 0,
            "byteLength" : 36,
            "byteOffset" : 469896
        },
        {
            "buffer" : 0,
            "byteLength" : 144,
            "byteOffset" : 469932
        },
        {
            "buffer" : 0,
            "byteLength" : 24,
            "byteOffset" : 470076
        },
        {
            "buffer" : 0,
            "byteLength" : 144,
            "byteOffset" : 470100
        },
        {
            "buffer" : 0,
            "byteLength" : 24,
            "byteOffset" : 470244
        },
        {
            "buffer" : 0,
            "byteLength" : 144,
            "byteOffset" : 470268
        },
        {
            "buffer" : 0,
            "byteLength" : 24,
            "byteOffset" : 470412
        },
        {
            "buffer" : 0,
            "byteLength" : 144,
            "byteOffset" : 470436
        },
        {
            "buffer" : 0,
            "byteLength" : 24,
            "byteOffset" : 470580
        },
        {
            "buffer" : 0,
            "byteLength" : 32,
            "byteOffset" : 470604
        },
        {
            "buffer" : 0,
            "byteLength" : 24,
            "byteOffset" : 470636
        },
        {
            "buffer" : 0,
            "byteLength" : 32,
            "byteOffset" : 470660
        }
    ],
    "samplers" : [
        {
            "magFilter" : 9729,
            "minFilter" : 9987
        }
    ],
    "buffers" : [
        {
            "byteLength" : 470692,
            "uri" : "data:application/octet-stream;base64,"
        }
    ]
}
