{
    "asset" : {
        "generator" : "Khronos glTF Blender I/O v1.8.19",
        "version" : "2.0"
    },
    "scene" : 0,
    "scenes" : [
        {
            "name" : "Scene",
            "nodes" : [
                0
            ]
        }
    ],
    "nodes" : [
        {
            "mesh" : 0,
            "name" : "Cube"
        }
    ],
    "animations" : [
        {
            "channels" : [
                {
                    "sampler" : 0,
                    "target" : {
                        "node" : 0,
                        "path" : "weights"
                    }
                }
            ],
            "name" : "Action0",
            "samplers" : [
                {
                    "input" : 10,
                    "interpolation" : "LINEAR",
                    "output" : 11
                }
            ]
        },
        {
            "channels" : [
                {
                    "sampler" : 0,
                    "target" : {
                        "node" : 0,
                        "path" : "weights"
                    }
                }
            ],
            "name" : "Action1",
            "samplers" : [
                {
                    "input" : 10,
                    "interpolation" : "LINEAR",
                    "output" : 12
                }
            ]
        },
        {
            "channels" : [
                {
                    "sampler" : 0,
                    "target" : {
                        "node" : 0,
                        "path" : "weights"
                    }
                }
            ],
            "name" : "Action2",
            "samplers" : [
                {
                    "input" : 10,
                    "interpolation" : "LINEAR",
                    "output" : 13
                }
            ]
        }
    ],
    "materials" : [
        {
            "doubleSided" : true,
            "name" : "Material",
            "pbrMetallicRoughness" : {
                "baseColorFactor" : [
                    0.800000011920929,
                    0.800000011920929,
                    0.800000011920929,
                    1
                ],
                "metallicFactor" : 0,
                "roughnessFactor" : 0.4000000059604645
            }
        }
    ],
    "meshes" : [
        {
            "extras" : {
                "targetNames" : [
                    "Key 1",
                    "Key 2",
                    "Key 3"
                ]
            },
            "name" : "Cube",
            "primitives" : [
                {
                    "attributes" : {
                        "POSITION" : 0,
                        "NORMAL" : 1,
                        "TEXCOORD_0" : 2
                    },
                    "indices" : 3,
                    "material" : 0,
                    "targets" : [
                        {
                            "POSITION" : 4,
                            "NORMAL" : 5
                        },
                        {
                            "POSITION" : 6,
                            "NORMAL" : 7
                        },
                        {
                            "POSITION" : 8,
                            "NORMAL" : 9
                        }
                    ]
                }
            ],
            "weights" : [
                0,
                0,
                0
            ]
        }
    ],
    "accessors" : [
        {
            "bufferView" : 0,
            "componentType" : 5126,
            "count" : 131,
            "max" : [
                1,
                1,
                1
            ],
            "min" : [
                -1,
                -1,
                -1
            ],
            "type" : "VEC3"
        },
        {
            "bufferView" : 1,
            "componentType" : 5126,
            "count" : 131,
            "type" : "VEC3"
        },
        {
            "bufferView" : 2,
            "componentType" : 5126,
            "count" : 131,
            "type" : "VEC2"
        },
        {
            "bufferView" : 3,
            "componentType" : 5123,
            "count" : 276,
            "type" : "SCALAR"
        },
        {
            "bufferView" : 4,
            "componentType" : 5126,
            "count" : 131,
            "max" : [
                5.960464477539063e-08,
                1,
                5.960464477539063e-08
            ],
            "min" : [
                -5.960464477539063e-08,
                0,
                0
            ],
            "type" : "VEC3"
        },
        {
            "bufferView" : 5,
            "componentType" : 5126,
            "count" : 131,
            "type" : "VEC3"
        },
        {
            "bufferView" : 6,
            "componentType" : 5126,
            "count" : 131,
            "max" : [
                5.960464477539063e-08,
                5.960464477539063e-08,
                1
            ],
            "min" : [
                -5.960464477539063e-08,
                -5.960464477539063e-08,
                -1
            ],
            "type" : "VEC3"
        },
        {
            "bufferView" : 7,
            "componentType" : 5126,
            "count" : 131,
            "type" : "VEC3"
        },
        {
            "bufferView" : 8,
            "componentType" : 5126,
            "count" : 131,
            "max" : [
                1,
                5.960464477539063e-08,
                5.960464477539063e-08
            ],
            "min" : [
                -1,
                -5.960464477539063e-08,
                -5.960464477539063e-08
            ],
            "type" : "VEC3"
        },
        {
            "bufferView" : 9,
            "componentType" : 5126,
            "count" : 131,
            "type" : "VEC3"
        },
        {
            "bufferView" : 10,
            "componentType" : 5126,
            "count" : 60,
            "max" : [
                2.5
            ],
            "min" : [
                0.041666666666666664
            ],
            "type" : "SCALAR"
        },
        {
            "bufferView" : 11,
            "componentType" : 5126,
            "count" : 180,
            "type" : "SCALAR"
        },
        {
            "bufferView" : 12,
            "componentType" : 5126,
            "count" : 180,
            "type" : "SCALAR"
        },
        {
            "bufferView" : 13,
            "componentType" : 5126,
            "count" : 180,
            "type" : "SCALAR"
        }
    ],
    "bufferViews" : [
        {
            "buffer" : 0,
            "byteLength" : 1572,
            "byteOffset" : 0
        },
        {
            "buffer" : 0,
            "byteLength" : 1572,
            "byteOffset" : 1572
        },
        {
            "buffer" : 0,
            "byteLength" : 1048,
            "byteOffset" : 3144
        },
        {
            "buffer" : 0,
            "byteLength" : 552,
            "byteOffset" : 4192
        },
        {
            "buffer" : 0,
            "byteLength" : 1572,
            "byteOffset" : 4744
        },
        {
            "buffer" : 0,
            "byteLength" : 1572,
            "byteOffset" : 6316
        },
        {
            "buffer" : 0,
            "byteLength" : 1572,
            "byteOffset" : 7888
        },
        {
            "buffer" : 0,
            "byteLength" : 1572,
            "byteOffset" : 9460
        },
        {
            "buffer" : 0,
            "byteLength" : 1572,
            "byteOffset" : 11032
        },
        {
            "buffer" : 0,
            "byteLength" : 1572,
            "byteOffset" : 12604
        },
        {
            "buffer" : 0,
            "byteLength" : 240,
            "byteOffset" : 14176
        },
        {
            "buffer" : 0,
            "byteLength" : 720,
            "byteOffset" : 14416
        },
        {
            "buffer" : 0,
            "byteLength" : 720,
            "byteOffset" : 15136
        },
        {
            "buffer" : 0,
            "byteLength" : 720,
            "byteOffset" : 15856
        }
    ],
    "buffers" : [
        {
            "byteLength" : 16576,
            "uri" : "data:application/octet-stream;base64,"
        }
    ]
}
