{
    "asset" : {
        "generator" : "Khronos glTF Blender I/O v1.8.19",
        "version" : "2.0"
    },
    "scene" : 0,
    "scenes" : [
        {
            "name" : "Scene",
            "nodes" : [
                0
            ]
        }
    ],
    "nodes" : [
        {
            "mesh" : 0,
            "name" : "Mesh_0"
        }
    ],
    "animations" : [
        {
            "channels" : [
                {
                    "sampler" : 0,
                    "target" : {
                        "node" : 0,
                        "path" : "weights"
                    }
                }
            ],
            "name" : "parrot_A_",
            "samplers" : [
                {
                    "input" : 29,
                    "interpolation" : "LINEAR",
                    "output" : 30
                }
            ]
        }
    ],
    "materials" : [
        {
            "name" : "Material_0",
            "pbrMetallicRoughness" : {
                "metallicFactor" : 0
            }
        }
    ],
    "meshes" : [
        {
            "extras" : {
                "targetNames" : [
                    "parrot_A_001",
                    "parrot_A_002",
                    "parrot_A_003",
                    "parrot_A_004",
                    "parrot_A_005",
                    "parrot_A_006",
                    "parrot_A_007",
                    "parrot_A_008",
                    "parrot_A_009",
                    "parrot_A_010",
                    "parrot_A_011",
                    "parrot_A_012"
                ]
            },
            "name" : "Mesh_0",
            "primitives" : [
                {
                    "attributes" : {
                        "POSITION" : 0,
                        "NORMAL" : 1,
                        "TEXCOORD_0" : 2,
                        "COLOR_0" : 3
                    },
                    "indices" : 4,
                    "material" : 0,
                    "targets" : [
                        {
                            "POSITION" : 5,
                            "NORMAL" : 6
                        },
                        {
                            "POSITION" : 7,
                            "NORMAL" : 8
                        },
                        {
                            "POSITION" : 9,
                            "NORMAL" : 10
                        },
                        {
                            "POSITION" : 11,
                            "NORMAL" : 12
                        },
                        {
                            "POSITION" : 13,
                            "NORMAL" : 14
                        },
                        {
                            "POSITION" : 15,
                            "NORMAL" : 16
                        },
                        {
                            "POSITION" : 17,
                            "NORMAL" : 18
                        },
                        {
                            "POSITION" : 19,
                            "NORMAL" : 20
                        },
                        {
                            "POSITION" : 21,
                            "NORMAL" : 22
                        },
                        {
                            "POSITION" : 23,
                            "NORMAL" : 24
                        },
                        {
                            "POSITION" : 25,
                            "NORMAL" : 26
                        },
                        {
                            "POSITION" : 27,
                            "NORMAL" : 28
                        }
                    ]
                }
            ],
            "weights" : [
                1,
                0,
                0,
                0,
                0,
                0,
                0,
                0,
                0,
                0,
                0,
                0
            ]
        }
    ],
    "accessors" : [
        {
            "bufferView" : 0,
            "componentType" : 5126,
            "count" : 497,
            "max" : [
                40.5,
                19.799999237060547,
                24.399999618530273
            ],
            "min" : [
                -39,
                -13.899999618530273,
                -76.0999984741211
            ],
            "type" : "VEC3"
        },
        {
            "bufferView" : 1,
            "componentType" : 5126,
            "count" : 497,
            "type" : "VEC3"
        },
        {
            "bufferView" : 2,
            "componentType" : 5126,
            "count" : 497,
            "type" : "VEC2"
        },
        {
            "bufferView" : 3,
            "componentType" : 5123,
            "count" : 497,
            "normalized" : true,
            "type" : "VEC4"
        },
        {
            "bufferView" : 4,
            "componentType" : 5123,
            "count" : 1878,
            "type" : "SCALAR"
        },
        {
            "bufferView" : 5,
            "componentType" : 5126,
            "count" : 497,
            "max" : [
                0,
                0,
                0
            ],
            "min" : [
                0,
                0,
                0
            ],
            "type" : "VEC3"
        },
        {
            "bufferView" : 6,
            "componentType" : 5126,
            "count" : 497,
            "type" : "VEC3"
        },
        {
            "bufferView" : 7,
            "componentType" : 5126,
            "count" : 497,
            "max" : [
                8.200000762939453,
                21.200000762939453,
                0.8000001907348633
            ],
            "min" : [
                -9.400001525878906,
                -0.7000007629394531,
                -19.599998474121094
            ],
            "type" : "VEC3"
        },
        {
            "bufferView" : 8,
            "componentType" : 5126,
            "count" : 497,
            "type" : "VEC3"
        },
        {
            "bufferView" : 9,
            "componentType" : 5126,
            "count" : 497,
            "max" : [
                14.19999885559082,
                55.79999923706055,
                3.799999952316284
            ],
            "min" : [
                -16.5,
                -1.6000003814697266,
                -28.100000381469727
            ],
            "type" : "VEC3"
        },
        {
            "bufferView" : 10,
            "componentType" : 5126,
            "count" : 497,
            "type" : "VEC3"
        },
        {
            "bufferView" : 11,
            "componentType" : 5126,
            "count" : 497,
            "max" : [
                21.400001525878906,
                66.5,
                6.5
            ],
            "min" : [
                -24.299999237060547,
                -2,
                -24.799999237060547
            ],
            "type" : "VEC3"
        },
        {
            "bufferView" : 12,
            "componentType" : 5126,
            "count" : 497,
            "type" : "VEC3"
        },
        {
            "bufferView" : 13,
            "componentType" : 5126,
            "count" : 497,
            "max" : [
                15.199999809265137,
                66.0999984741211,
                7
            ],
            "min" : [
                -14.499999046325684,
                -1.3000001907348633,
                -17.600000381469727
            ],
            "type" : "VEC3"
        },
        {
            "bufferView" : 14,
            "componentType" : 5126,
            "count" : 497,
            "type" : "VEC3"
        },
        {
            "bufferView" : 15,
            "componentType" : 5126,
            "count" : 497,
            "max" : [
                8.09999942779541,
                56.30000305175781,
                8.5
            ],
            "min" : [
                -7.500000953674316,
                -3.700000047683716,
                -4.900000095367432
            ],
            "type" : "VEC3"
        },
        {
            "bufferView" : 16,
            "componentType" : 5126,
            "count" : 497,
            "type" : "VEC3"
        },
        {
            "bufferView" : 17,
            "componentType" : 5126,
            "count" : 497,
            "max" : [
                11.900001525878906,
                36.5,
                13.199999809265137
            ],
            "min" : [
                -12.900001525878906,
                -8.69999885559082,
                -0.40000057220458984
            ],
            "type" : "VEC3"
        },
        {
            "bufferView" : 18,
            "componentType" : 5126,
            "count" : 497,
            "type" : "VEC3"
        },
        {
            "bufferView" : 19,
            "componentType" : 5126,
            "count" : 497,
            "max" : [
                13.399999618530273,
                15.09999942779541,
                21.200000762939453
            ],
            "min" : [
                -14,
                -14.19999885559082,
                -0.5
            ],
            "type" : "VEC3"
        },
        {
            "bufferView" : 20,
            "componentType" : 5126,
            "count" : 497,
            "type" : "VEC3"
        },
        {
            "bufferView" : 21,
            "componentType" : 5126,
            "count" : 497,
            "max" : [
                12.69999885559082,
                4.5,
                21.80000114440918
            ],
            "min" : [
                -11.30000114440918,
                -19.599998474121094,
                -0.4999990463256836
            ],
            "type" : "VEC3"
        },
        {
            "bufferView" : 22,
            "componentType" : 5126,
            "count" : 497,
            "type" : "VEC3"
        },
        {
            "bufferView" : 23,
            "componentType" : 5126,
            "count" : 497,
            "max" : [
                6.299999237060547,
                3.1000001430511475,
                19.399999618530273
            ],
            "min" : [
                -6.599998474121094,
                -25.100000381469727,
                -0.7000007629394531
            ],
            "type" : "VEC3"
        },
        {
            "bufferView" : 24,
            "componentType" : 5126,
            "count" : 497,
            "type" : "VEC3"
        },
        {
            "bufferView" : 25,
            "componentType" : 5126,
            "count" : 497,
            "max" : [
                12.899999618530273,
                3.1000001430511475,
                13.399999618530273
            ],
            "min" : [
                -17,
                -31.400001525878906,
                -1.6999998092651367
            ],
            "type" : "VEC3"
        },
        {
            "bufferView" : 26,
            "componentType" : 5126,
            "count" : 497,
            "type" : "VEC3"
        },
        {
            "bufferView" : 27,
            "componentType" : 5126,
            "count" : 497,
            "max" : [
                10,
                6.399999618530273,
                11.40000057220459
            ],
            "min" : [
                -7.599998474121094,
                -22.200000762939453,
                -0.5
            ],
            "type" : "VEC3"
        },
        {
            "bufferView" : 28,
            "componentType" : 5126,
            "count" : 497,
            "type" : "VEC3"
        },
        {
            "bufferView" : 29,
            "componentType" : 5126,
            "count" : 29,
            "max" : [
                1.1666666666666667
            ],
            "min" : [
                0
            ],
            "type" : "SCALAR"
        },
        {
            "bufferView" : 30,
            "componentType" : 5126,
            "count" : 348,
            "type" : "SCALAR"
        }
    ],
    "bufferViews" : [
        {
            "buffer" : 0,
            "byteLength" : 5964,
            "byteOffset" : 0
        },
        {
            "buffer" : 0,
            "byteLength" : 5964,
            "byteOffset" : 5964
        },
        {
            "buffer" : 0,
            "byteLength" : 3976,
            "byteOffset" : 11928
        },
        {
            "buffer" : 0,
            "byteLength" : 3976,
            "byteOffset" : 15904
        },
        {
            "buffer" : 0,
            "byteLength" : 3756,
            "byteOffset" : 19880
        },
        {
            "buffer" : 0,
            "byteLength" : 5964,
            "byteOffset" : 23636
        },
        {
            "buffer" : 0,
            "byteLength" : 5964,
            "byteOffset" : 29600
        },
        {
            "buffer" : 0,
            "byteLength" : 5964,
            "byteOffset" : 35564
        },
        {
            "buffer" : 0,
            "byteLength" : 5964,
            "byteOffset" : 41528
        },
        {
            "buffer" : 0,
            "byteLength" : 5964,
            "byteOffset" : 47492
        },
        {
            "buffer" : 0,
            "byteLength" : 5964,
            "byteOffset" : 53456
        },
        {
            "buffer" : 0,
            "byteLength" : 5964,
            "byteOffset" : 59420
        },
        {
            "buffer" : 0,
            "byteLength" : 5964,
            "byteOffset" : 65384
        },
        {
            "buffer" : 0,
            "byteLength" : 5964,
            "byteOffset" : 71348
        },
        {
            "buffer" : 0,
            "byteLength" : 5964,
            "byteOffset" : 77312
        },
        {
            "buffer" : 0,
            "byteLength" : 5964,
            "byteOffset" : 83276
        },
        {
            "buffer" : 0,
            "byteLength" : 5964,
            "byteOffset" : 89240
        },
        {
            "buffer" : 0,
            "byteLength" : 5964,
            "byteOffset" : 95204
        },
        {
            "buffer" : 0,
            "byteLength" : 5964,
            "byteOffset" : 101168
        },
        {
            "buffer" : 0,
            "byteLength" : 5964,
            "byteOffset" : 107132
        },
        {
            "buffer" : 0,
            "byteLength" : 5964,
            "byteOffset" : 113096
        },
        {
            "buffer" : 0,
            "byteLength" : 5964,
            "byteOffset" : 119060
        },
        {
            "buffer" : 0,
            "byteLength" : 5964,
            "byteOffset" : 125024
        },
        {
            "buffer" : 0,
            "byteLength" : 5964,
            "byteOffset" : 130988
        },
        {
            "buffer" : 0,
            "byteLength" : 5964,
            "byteOffset" : 136952
        },
        {
            "buffer" : 0,
            "byteLength" : 5964,
            "byteOffset" : 142916
        },
        {
            "buffer" : 0,
            "byteLength" : 5964,
            "byteOffset" : 148880
        },
        {
            "buffer" : 0,
            "byteLength" : 5964,
            "byteOffset" : 154844
        },
        {
            "buffer" : 0,
            "byteLength" : 5964,
            "byteOffset" : 160808
        },
        {
            "buffer" : 0,
            "byteLength" : 116,
            "byteOffset" : 166772
        },
        {
            "buffer" : 0,
            "byteLength" : 1392,
            "byteOffset" : 166888
        }
    ],
    "buffers" : [
        {
            "byteLength" : 168280,
            "uri" : "data:application/octet-stream;base64,"
        }
    ]
}
