{
    "asset" : {
        "generator" : "Khronos glTF Blender I/O v1.8.19",
        "version" : "2.0"
    },
    "scene" : 0,
    "scenes" : [
        {
            "name" : "Scene",
            "nodes" : [
                0
            ]
        }
    ],
    "nodes" : [
        {
            "mesh" : 0,
            "name" : "Mesh_0.001"
        }
    ],
    "animations" : [
        {
            "channels" : [
                {
                    "sampler" : 0,
                    "target" : {
                        "node" : 0,
                        "path" : "weights"
                    }
                }
            ],
            "name" : "storkFly_B_",
            "samplers" : [
                {
                    "input" : 31,
                    "interpolation" : "LINEAR",
                    "output" : 32
                }
            ]
        }
    ],
    "materials" : [
        {
            "name" : "Material_0.001",
            "pbrMetallicRoughness" : {
                "metallicFactor" : 0
            }
        }
    ],
    "meshes" : [
        {
            "extras" : {
                "targetNames" : [
                    "storkFly_B_001",
                    "storkFly_B_002",
                    "storkFly_B_003",
                    "storkFly_B_004",
                    "storkFly_B_005",
                    "storkFly_B_006",
                    "storkFly_B_007",
                    "storkFly_B_008",
                    "storkFly_B_009",
                    "storkFly_B_010",
                    "storkFly_B_011",
                    "storkFly_B_012",
                    "storkFly_B_013"
                ]
            },
            "name" : "Mesh_0.001",
            "primitives" : [
                {
                    "attributes" : {
                        "POSITION" : 0,
                        "NORMAL" : 1,
                        "TEXCOORD_0" : 2,
                        "COLOR_0" : 3
                    },
                    "indices" : 4,
                    "material" : 0,
                    "targets" : [
                        {
                            "POSITION" : 5,
                            "NORMAL" : 6
                        },
                        {
                            "POSITION" : 7,
                            "NORMAL" : 8
                        },
                        {
                            "POSITION" : 9,
                            "NORMAL" : 10
                        },
                        {
                            "POSITION" : 11,
                            "NORMAL" : 12
                        },
                        {
                            "POSITION" : 13,
                            "NORMAL" : 14
                        },
                        {
                            "POSITION" : 15,
                            "NORMAL" : 16
                        },
                        {
                            "POSITION" : 17,
                            "NORMAL" : 18
                        },
                        {
                            "POSITION" : 19,
                            "NORMAL" : 20
                        },
                        {
                            "POSITION" : 21,
                            "NORMAL" : 22
                        },
                        {
                            "POSITION" : 23,
                            "NORMAL" : 24
                        },
                        {
                            "POSITION" : 25,
                            "NORMAL" : 26
                        },
                        {
                            "POSITION" : 27,
                            "NORMAL" : 28
                        },
                        {
                            "POSITION" : 29,
                            "NORMAL" : 30
                        }
                    ]
                }
            ],
            "weights" : [
                1,
                0,
                0,
                0,
                0,
                0,
                0,
                0,
                0,
                0,
                0,
                0,
                0
            ]
        }
    ],
    "accessors" : [
        {
            "bufferView" : 0,
            "componentType" : 5126,
            "count" : 358,
            "max" : [
                98.4000015258789,
                23.899999618530273,
                92
            ],
            "min" : [
                -98.4000015258789,
                -6,
                -82.30000305175781
            ],
            "type" : "VEC3"
        },
        {
            "bufferView" : 1,
            "componentType" : 5126,
            "count" : 358,
            "type" : "VEC3"
        },
        {
            "bufferView" : 2,
            "componentType" : 5126,
            "count" : 358,
            "type" : "VEC2"
        },
        {
            "bufferView" : 3,
            "componentType" : 5123,
            "count" : 358,
            "normalized" : true,
            "type" : "VEC4"
        },
        {
            "bufferView" : 4,
            "componentType" : 5123,
            "count" : 1626,
            "type" : "SCALAR"
        },
        {
            "bufferView" : 5,
            "componentType" : 5126,
            "count" : 358,
            "max" : [
                0,
                0,
                0
            ],
            "min" : [
                0,
                0,
                0
            ],
            "type" : "VEC3"
        },
        {
            "bufferView" : 6,
            "componentType" : 5126,
            "count" : 358,
            "type" : "VEC3"
        },
        {
            "bufferView" : 7,
            "componentType" : 5126,
            "count" : 358,
            "max" : [
                7.000003814697266,
                32.80000305175781,
                0.9000015258789062
            ],
            "min" : [
                -7,
                -2.700000047683716,
                -1.3999996185302734
            ],
            "type" : "VEC3"
        },
        {
            "bufferView" : 8,
            "componentType" : 5126,
            "count" : 358,
            "type" : "VEC3"
        },
        {
            "bufferView" : 9,
            "componentType" : 5126,
            "count" : 358,
            "max" : [
                18.000003814697266,
                52.80000305175781,
                5.200000286102295
            ],
            "min" : [
                -18.799999237060547,
                -6.30000114440918,
                0.8999996185302734
            ],
            "type" : "VEC3"
        },
        {
            "bufferView" : 10,
            "componentType" : 5126,
            "count" : 358,
            "type" : "VEC3"
        },
        {
            "bufferView" : 11,
            "componentType" : 5126,
            "count" : 358,
            "max" : [
                27,
                64.0999984741211,
                11.5
            ],
            "min" : [
                -30.599998474121094,
                -11.600000381469727,
                1.4000015258789062
            ],
            "type" : "VEC3"
        },
        {
            "bufferView" : 12,
            "componentType" : 5126,
            "count" : 358,
            "type" : "VEC3"
        },
        {
            "bufferView" : 13,
            "componentType" : 5126,
            "count" : 358,
            "max" : [
                37.20000076293945,
                69.20000457763672,
                18.30000114440918
            ],
            "min" : [
                -44.400001525878906,
                -15.700000762939453,
                2.1000003814697266
            ],
            "type" : "VEC3"
        },
        {
            "bufferView" : 14,
            "componentType" : 5126,
            "count" : 358,
            "type" : "VEC3"
        },
        {
            "bufferView" : 15,
            "componentType" : 5126,
            "count" : 358,
            "max" : [
                49.70000076293945,
                67.5,
                26.600000381469727
            ],
            "min" : [
                -59.30000305175781,
                -18.400001525878906,
                1.5
            ],
            "type" : "VEC3"
        },
        {
            "bufferView" : 16,
            "componentType" : 5126,
            "count" : 358,
            "type" : "VEC3"
        },
        {
            "bufferView" : 17,
            "componentType" : 5126,
            "count" : 358,
            "max" : [
                21.599998474121094,
                50.20000076293945,
                26.80000114440918
            ],
            "min" : [
                -26.20000457763672,
                -24,
                2.9000015258789062
            ],
            "type" : "VEC3"
        },
        {
            "bufferView" : 18,
            "componentType" : 5126,
            "count" : 358,
            "type" : "VEC3"
        },
        {
            "bufferView" : 19,
            "componentType" : 5126,
            "count" : 358,
            "max" : [
                3.9000015258789062,
                -0.9000000953674316,
                23.899999618530273
            ],
            "min" : [
                -4.3000030517578125,
                -24,
                1.9000015258789062
            ],
            "type" : "VEC3"
        },
        {
            "bufferView" : 20,
            "componentType" : 5126,
            "count" : 358,
            "type" : "VEC3"
        },
        {
            "bufferView" : 21,
            "componentType" : 5126,
            "count" : 358,
            "max" : [
                13.300003051757812,
                2.4000000953674316,
                30.000001907348633
            ],
            "min" : [
                -7.599998474121094,
                -29.5,
                0.5
            ],
            "type" : "VEC3"
        },
        {
            "bufferView" : 22,
            "componentType" : 5126,
            "count" : 358,
            "type" : "VEC3"
        },
        {
            "bufferView" : 23,
            "componentType" : 5126,
            "count" : 358,
            "max" : [
                24.70000457763672,
                5.699999809265137,
                29.80000114440918
            ],
            "min" : [
                -17.800003051757812,
                -41,
                -0.20000076293945312
            ],
            "type" : "VEC3"
        },
        {
            "bufferView" : 24,
            "componentType" : 5126,
            "count" : 358,
            "type" : "VEC3"
        },
        {
            "bufferView" : 25,
            "componentType" : 5126,
            "count" : 358,
            "max" : [
                33.80000305175781,
                7.500000953674316,
                22.30000114440918
            ],
            "min" : [
                -26.599998474121094,
                -48.69999694824219,
                -0.5
            ],
            "type" : "VEC3"
        },
        {
            "bufferView" : 26,
            "componentType" : 5126,
            "count" : 358,
            "type" : "VEC3"
        },
        {
            "bufferView" : 27,
            "componentType" : 5126,
            "count" : 358,
            "max" : [
                20.20000457763672,
                6.200000762939453,
                9.700000762939453
            ],
            "min" : [
                -15,
                -40.099998474121094,
                -0.5999984741210938
            ],
            "type" : "VEC3"
        },
        {
            "bufferView" : 28,
            "componentType" : 5126,
            "count" : 358,
            "type" : "VEC3"
        },
        {
            "bufferView" : 29,
            "componentType" : 5126,
            "count" : 358,
            "max" : [
                7.099998474121094,
                3.200000762939453,
                2.5
            ],
            "min" : [
                -4.8000030517578125,
                -22.600000381469727,
                -0.6000003814697266
            ],
            "type" : "VEC3"
        },
        {
            "bufferView" : 30,
            "componentType" : 5126,
            "count" : 358,
            "type" : "VEC3"
        },
        {
            "bufferView" : 31,
            "componentType" : 5126,
            "count" : 32,
            "max" : [
                1.2916666666666667
            ],
            "min" : [
                0
            ],
            "type" : "SCALAR"
        },
        {
            "bufferView" : 32,
            "componentType" : 5126,
            "count" : 416,
            "type" : "SCALAR"
        }
    ],
    "bufferViews" : [
        {
            "buffer" : 0,
            "byteLength" : 4296,
            "byteOffset" : 0
        },
        {
            "buffer" : 0,
            "byteLength" : 4296,
            "byteOffset" : 4296
        },
        {
            "buffer" : 0,
            "byteLength" : 2864,
            "byteOffset" : 8592
        },
        {
            "buffer" : 0,
            "byteLength" : 2864,
            "byteOffset" : 11456
        },
        {
            "buffer" : 0,
            "byteLength" : 3252,
            "byteOffset" : 14320
        },
        {
            "buffer" : 0,
            "byteLength" : 4296,
            "byteOffset" : 17572
        },
        {
            "buffer" : 0,
            "byteLength" : 4296,
            "byteOffset" : 21868
        },
        {
            "buffer" : 0,
            "byteLength" : 4296,
            "byteOffset" : 26164
        },
        {
            "buffer" : 0,
            "byteLength" : 4296,
            "byteOffset" : 30460
        },
        {
            "buffer" : 0,
            "byteLength" : 4296,
            "byteOffset" : 34756
        },
        {
            "buffer" : 0,
            "byteLength" : 4296,
            "byteOffset" : 39052
        },
        {
            "buffer" : 0,
            "byteLength" : 4296,
            "byteOffset" : 43348
        },
        {
            "buffer" : 0,
            "byteLength" : 4296,
            "byteOffset" : 47644
        },
        {
            "buffer" : 0,
            "byteLength" : 4296,
            "byteOffset" : 51940
        },
        {
            "buffer" : 0,
            "byteLength" : 4296,
            "byteOffset" : 56236
        },
        {
            "buffer" : 0,
            "byteLength" : 4296,
            "byteOffset" : 60532
        },
        {
            "buffer" : 0,
            "byteLength" : 4296,
            "byteOffset" : 64828
        },
        {
            "buffer" : 0,
            "byteLength" : 4296,
            "byteOffset" : 69124
        },
        {
            "buffer" : 0,
            "byteLength" : 4296,
            "byteOffset" : 73420
        },
        {
            "buffer" : 0,
            "byteLength" : 4296,
            "byteOffset" : 77716
        },
        {
            "buffer" : 0,
            "byteLength" : 4296,
            "byteOffset" : 82012
        },
        {
            "buffer" : 0,
            "byteLength" : 4296,
            "byteOffset" : 86308
        },
        {
            "buffer" : 0,
            "byteLength" : 4296,
            "byteOffset" : 90604
        },
        {
            "buffer" : 0,
            "byteLength" : 4296,
            "byteOffset" : 94900
        },
        {
            "buffer" : 0,
            "byteLength" : 4296,
            "byteOffset" : 99196
        },
        {
            "buffer" : 0,
            "byteLength" : 4296,
            "byteOffset" : 103492
        },
        {
            "buffer" : 0,
            "byteLength" : 4296,
            "byteOffset" : 107788
        },
        {
            "buffer" : 0,
            "byteLength" : 4296,
            "byteOffset" : 112084
        },
        {
            "buffer" : 0,
            "byteLength" : 4296,
            "byteOffset" : 116380
        },
        {
            "buffer" : 0,
            "byteLength" : 4296,
            "byteOffset" : 120676
        },
        {
            "buffer" : 0,
            "byteLength" : 4296,
            "byteOffset" : 124972
        },
        {
            "buffer" : 0,
            "byteLength" : 128,
            "byteOffset" : 129268
        },
        {
            "buffer" : 0,
            "byteLength" : 1664,
            "byteOffset" : 129396
        }
    ],
    "buffers" : [
        {
            "byteLength" : 131060,
            "uri" : "data:application/octet-stream;base64,"
        }
    ]
}
