{
    "asset" : {
        "generator" : "Khronos glTF Blender I/O v1.8.19",
        "version" : "2.0"
    },
    "scene" : 0,
    "scenes" : [
        {
            "name" : "Scene",
            "nodes" : [
                28
            ]
        }
    ],
    "nodes" : [
        {
            "name" : "Bone.026",
            "translation" : [
                0,
                1,
                0
            ]
        },
        {
            "children" : [
                0
            ],
            "name" : "Bone.008",
            "translation" : [
                0,
                1,
                0
            ]
        },
        {
            "children" : [
                1
            ],
            "name" : "Bone.007",
            "translation" : [
                0,
                1,
                0
            ]
        },
        {
            "children" : [
                2
            ],
            "name" : "Bone.006",
            "translation" : [
                0,
                1,
                0
            ]
        },
        {
            "children" : [
                3
            ],
            "name" : "Bone.005",
            "translation" : [
                0,
                1,
                0
            ]
        },
        {
            "children" : [
                4
            ],
            "name" : "Bone.004",
            "rotation" : [
                -0.7071068286895752,
                0,
                0,
                0.7071068286895752
            ],
            "translation" : [
                0,
                0.5,
                0
            ]
        },
        {
            "name" : "Bone.027",
            "translation" : [
                0,
                1,
                0
            ]
        },
        {
            "children" : [
                6
            ],
            "name" : "Bone.011",
            "translation" : [
                0,
                1,
                0
            ]
        },
        {
            "children" : [
                7
            ],
            "name" : "Bone.010",
            "translation" : [
                0,
                1,
                0
            ]
        },
        {
            "children" : [
                8
            ],
            "name" : "Bone.009",
            "rotation" : [
                0.7071068286895752,
                -3.090862321641907e-08,
                -3.090862321641907e-08,
                0.7071068286895752
            ],
            "translation" : [
                0,
                0.5,
                0
            ]
        },
        {
            "name" : "Bone.024",
            "translation" : [
                0,
                1,
                0
            ]
        },
        {
            "children" : [
                10
            ],
            "name" : "Bone.015",
            "translation" : [
                0,
                1,
                0
            ]
        },
        {
            "children" : [
                11
            ],
            "name" : "Bone.014",
            "translation" : [
                0,
                1,
                0
            ]
        },
        {
            "children" : [
                12
            ],
            "name" : "Bone.013",
            "translation" : [
                0,
                1,
                0
            ]
        },
        {
            "children" : [
                13
            ],
            "name" : "Bone.012",
            "rotation" : [
                -2.6692541510442425e-08,
                -2.6692541510442425e-08,
                -0.7071068286895752,
                0.7071068286895752
            ],
            "translation" : [
                0,
                0.5,
                0
            ]
        },
        {
            "name" : "Bone.023",
            "translation" : [
                0,
                1,
                0
            ]
        },
        {
            "children" : [
                15
            ],
            "name" : "Bone.022",
            "translation" : [
                0,
                1,
                0
            ]
        },
        {
            "children" : [
                16
            ],
            "name" : "Bone.021",
            "translation" : [
                0,
                1,
                0
            ]
        },
        {
            "children" : [
                17
            ],
            "name" : "Bone.020",
            "translation" : [
                0,
                1,
                0
            ]
        },
        {
            "children" : [
                18
            ],
            "name" : "Bone.019",
            "translation" : [
                0,
                1,
                0
            ]
        },
        {
            "children" : [
                19
            ],
            "name" : "Bone.018",
            "translation" : [
                0,
                1,
                0
            ]
        },
        {
            "children" : [
                20
            ],
            "name" : "Bone.017",
            "translation" : [
                0,
                1,
                0
            ]
        },
        {
            "children" : [
                21
            ],
            "name" : "Bone.016",
            "rotation" : [
                -2.6692541510442425e-08,
                2.6692541510442425e-08,
                0.7071068286895752,
                0.7071068286895752
            ],
            "translation" : [
                0,
                0.5,
                0
            ]
        },
        {
            "children" : [
                5,
                9,
                14,
                22
            ],
            "name" : "Bone.003",
            "translation" : [
                0,
                1,
                0
            ]
        },
        {
            "children" : [
                23
            ],
            "name" : "Bone.002",
            "translation" : [
                0,
                1,
                0
            ]
        },
        {
            "children" : [
                24
            ],
            "name" : "Bone.001",
            "translation" : [
                0,
                1,
                0
            ]
        },
        {
            "children" : [
                25
            ],
            "name" : "Bone"
        },
        {
            "mesh" : 0,
            "name" : "Cube",
            "skin" : 0
        },
        {
            "children" : [
                27,
                26
            ],
            "name" : "Armature"
        }
    ],
    "animations" : [
        {
            "channels" : [
                {
                    "sampler" : 0,
                    "target" : {
                        "node" : 2,
                        "path" : "rotation"
                    }
                },
                {
                    "sampler" : 1,
                    "target" : {
                        "node" : 1,
                        "path" : "rotation"
                    }
                },
                {
                    "sampler" : 2,
                    "target" : {
                        "node" : 0,
                        "path" : "rotation"
                    }
                },
                {
                    "sampler" : 3,
                    "target" : {
                        "node" : 8,
                        "path" : "rotation"
                    }
                },
                {
                    "sampler" : 4,
                    "target" : {
                        "node" : 7,
                        "path" : "rotation"
                    }
                },
                {
                    "sampler" : 5,
                    "target" : {
                        "node" : 6,
                        "path" : "rotation"
                    }
                },
                {
                    "sampler" : 6,
                    "target" : {
                        "node" : 12,
                        "path" : "rotation"
                    }
                },
                {
                    "sampler" : 7,
                    "target" : {
                        "node" : 11,
                        "path" : "rotation"
                    }
                },
                {
                    "sampler" : 8,
                    "target" : {
                        "node" : 10,
                        "path" : "rotation"
                    }
                },
                {
                    "sampler" : 9,
                    "target" : {
                        "node" : 17,
                        "path" : "rotation"
                    }
                },
                {
                    "sampler" : 10,
                    "target" : {
                        "node" : 16,
                        "path" : "rotation"
                    }
                },
                {
                    "sampler" : 11,
                    "target" : {
                        "node" : 15,
                        "path" : "rotation"
                    }
                }
            ],
            "name" : "ArmatureAction",
            "samplers" : [
                {
                    "input" : 7,
                    "interpolation" : "LINEAR",
                    "output" : 8
                },
                {
                    "input" : 7,
                    "interpolation" : "LINEAR",
                    "output" : 9
                },
                {
                    "input" : 7,
                    "interpolation" : "LINEAR",
                    "output" : 10
                },
                {
                    "input" : 7,
                    "interpolation" : "LINEAR",
                    "output" : 11
                },
                {
                    "input" : 7,
                    "interpolation" : "LINEAR",
                    "output" : 12
                },
                {
                    "input" : 7,
                    "interpolation" : "LINEAR",
                    "output" : 13
                },
                {
                    "input" : 7,
                    "interpolation" : "LINEAR",
                    "output" : 14
                },
                {
                    "input" : 7,
                    "interpolation" : "LINEAR",
                    "output" : 15
                },
                {
                    "input" : 7,
                    "interpolation" : "LINEAR",
                    "output" : 16
                },
                {
                    "input" : 7,
                    "interpolation" : "LINEAR",
                    "output" : 17
                },
                {
                    "input" : 7,
                    "interpolation" : "LINEAR",
                    "output" : 18
                },
                {
                    "input" : 7,
                    "interpolation" : "LINEAR",
                    "output" : 19
                }
            ]
        }
    ],
    "materials" : [
        {
            "doubleSided" : true,
            "name" : "Material",
            "pbrMetallicRoughness" : {
                "baseColorFactor" : [
                    0.800000011920929,
                    0.800000011920929,
                    0.800000011920929,
                    1
                ],
                "metallicFactor" : 0,
                "roughnessFactor" : 0.4000000059604645
            }
        }
    ],
    "meshes" : [
        {
            "name" : "Cube",
            "primitives" : [
                {
                    "attributes" : {
                        "POSITION" : 0,
                        "NORMAL" : 1,
                        "TEXCOORD_0" : 2,
                        "JOINTS_0" : 3,
                        "WEIGHTS_0" : 4
                    },
                    "indices" : 5,
                    "material" : 0
                }
            ]
        }
    ],
    "skins" : [
        {
            "inverseBindMatrices" : 6,
            "joints" : [
                26,
                25,
                24,
                23,
                5,
                4,
                3,
                2,
                1,
                0,
                9,
                8,
                7,
                6,
                14,
                13,
                12,
                11,
                10,
                22,
                21,
                20,
                19,
                18,
                17,
                16,
                15
            ],
            "name" : "Armature"
        }
    ],
    "accessors" : [
        {
            "bufferView" : 0,
            "componentType" : 5126,
            "count" : 534,
            "max" : [
                5,
                4,
                4
            ],
            "min" : [
                -8,
                -1,
                -6
            ],
            "type" : "VEC3"
        },
        {
            "bufferView" : 1,
            "componentType" : 5126,
            "count" : 534,
            "type" : "VEC3"
        },
        {
            "bufferView" : 2,
            "componentType" : 5126,
            "count" : 534,
            "type" : "VEC2"
        },
        {
            "bufferView" : 3,
            "componentType" : 5121,
            "count" : 534,
            "type" : "VEC4"
        },
        {
            "bufferView" : 4,
            "componentType" : 5126,
            "count" : 534,
            "type" : "VEC4"
        },
        {
            "bufferView" : 5,
            "componentType" : 5123,
            "count" : 1500,
            "type" : "SCALAR"
        },
        {
            "bufferView" : 6,
            "componentType" : 5126,
            "count" : 27,
            "type" : "MAT4"
        },
        {
            "bufferView" : 7,
            "componentType" : 5126,
            "count" : 30,
            "max" : [
                1.25
            ],
            "min" : [
                0.041666666666666664
            ],
            "type" : "SCALAR"
        },
        {
            "bufferView" : 8,
            "componentType" : 5126,
            "count" : 30,
            "type" : "VEC4"
        },
        {
            "bufferView" : 9,
            "componentType" : 5126,
            "count" : 30,
            "type" : "VEC4"
        },
        {
            "bufferView" : 10,
            "componentType" : 5126,
            "count" : 30,
            "type" : "VEC4"
        },
        {
            "bufferView" : 11,
            "componentType" : 5126,
            "count" : 30,
            "type" : "VEC4"
        },
        {
            "bufferView" : 12,
            "componentType" : 5126,
            "count" : 30,
            "type" : "VEC4"
        },
        {
            "bufferView" : 13,
            "componentType" : 5126,
            "count" : 30,
            "type" : "VEC4"
        },
        {
            "bufferView" : 14,
            "componentType" : 5126,
            "count" : 30,
            "type" : "VEC4"
        },
        {
            "bufferView" : 15,
            "componentType" : 5126,
            "count" : 30,
            "type" : "VEC4"
        },
        {
            "bufferView" : 16,
            "componentType" : 5126,
            "count" : 30,
            "type" : "VEC4"
        },
        {
            "bufferView" : 17,
            "componentType" : 5126,
            "count" : 30,
            "type" : "VEC4"
        },
        {
            "bufferView" : 18,
            "componentType" : 5126,
            "count" : 30,
            "type" : "VEC4"
        },
        {
            "bufferView" : 19,
            "componentType" : 5126,
            "count" : 30,
            "type" : "VEC4"
        }
    ],
    "bufferViews" : [
        {
            "buffer" : 0,
            "byteLength" : 6408,
            "byteOffset" : 0
        },
        {
            "buffer" : 0,
            "byteLength" : 6408,
            "byteOffset" : 6408
        },
        {
            "buffer" : 0,
            "byteLength" : 4272,
            "byteOffset" : 12816
        },
        {
            "buffer" : 0,
            "byteLength" : 2136,
            "byteOffset" : 17088
        },
        {
            "buffer" : 0,
            "byteLength" : 8544,
            "byteOffset" : 19224
        },
        {
            "buffer" : 0,
            "byteLength" : 3000,
            "byteOffset" : 27768
        },
        {
            "buffer" : 0,
            "byteLength" : 1728,
            "byteOffset" : 30768
        },
        {
            "buffer" : 0,
            "byteLength" : 120,
            "byteOffset" : 32496
        },
        {
            "buffer" : 0,
            "byteLength" : 480,
            "byteOffset" : 32616
        },
        {
            "buffer" : 0,
            "byteLength" : 480,
            "byteOffset" : 33096
        },
        {
            "buffer" : 0,
            "byteLength" : 480,
            "byteOffset" : 33576
        },
        {
            "buffer" : 0,
            "byteLength" : 480,
            "byteOffset" : 34056
        },
        {
            "buffer" : 0,
            "byteLength" : 480,
            "byteOffset" : 34536
        },
        {
            "buffer" : 0,
            "byteLength" : 480,
            "byteOffset" : 35016
        },
        {
            "buffer" : 0,
            "byteLength" : 480,
            "byteOffset" : 35496
        },
        {
            "buffer" : 0,
            "byteLength" : 480,
            "byteOffset" : 35976
        },
        {
            "buffer" : 0,
            "byteLength" : 480,
            "byteOffset" : 36456
        },
        {
            "buffer" : 0,
            "byteLength" : 480,
            "byteOffset" : 36936
        },
        {
            "buffer" : 0,
            "byteLength" : 480,
            "byteOffset" : 37416
        },
        {
            "buffer" : 0,
            "byteLength" : 480,
            "byteOffset" : 37896
        }
    ],
    "buffers" : [
        {
            "byteLength" : 38376,
            "uri" : "data:application/octet-stream;base64,"
        }
    ]
}
