# Blender v3.0.0 OBJ File: 'robot.blend'
# www.blender.org
mtllib robot.mtl
o Cube
v -0.962046 -1.000000 -1.036565
v -0.962046 1.000000 -1.036565
v 1.036565 -1.000000 -0.962046
v 1.036565 1.000000 -0.962046
v -1.036565 -1.000000 0.962046
v -1.036565 1.000000 0.962046
v 0.962046 -1.000000 1.036565
v 0.962046 1.000000 1.036565
v -0.467775 1.603168 -0.504008
v 0.504008 1.603168 -0.467775
v 0.467775 1.603168 0.504008
v -0.504008 1.603168 0.467775
v -0.504008 2.509596 0.467775
v 0.467775 2.509596 0.504008
v 0.504008 2.509596 -0.467775
v -0.467775 2.509596 -0.504008
v -1.827162 -0.591080 -0.659617
v -1.827162 0.591080 -0.659617
v -1.871209 0.591080 0.521722
v -1.871209 -0.591080 0.521722
v -2.780165 -0.591080 -0.695150
v -2.780165 0.591080 -0.695150
v -2.824212 0.591080 0.486189
v -2.824212 -0.591080 0.486189
v 1.884628 0.663813 -0.594005
v 1.884628 -0.663813 -0.594005
v 1.835161 -0.663813 0.732699
v 1.835161 0.663813 0.732699
v 3.179663 0.663813 -0.545719
v 3.179663 -0.663813 -0.545719
v 3.130197 -0.663813 0.780985
v 3.130197 0.663813 0.780985
v 0.122494 -1.000000 1.005262
v 0.119635 -1.000000 -0.996234
v -0.265684 -1.824303 -0.902200
v -1.347365 -1.824303 -0.942531
v -1.421884 -1.824303 1.056080
v -0.262825 -1.824303 1.099296
v 1.413077 -1.718629 0.924578
v 1.487596 -1.718629 -1.074033
v 0.573525 -1.718629 0.893275
v 0.570665 -1.718629 -1.108221
v -0.265684 -3.004185 -0.902200
v -1.347365 -3.004185 -0.942531
v -1.421884 -3.004185 1.056080
v -0.262825 -3.004185 1.099296
v 1.413077 -2.884979 0.924578
v 1.487596 -2.884979 -1.074033
v 0.573525 -2.884979 0.893275
v 0.570665 -2.884979 -1.108221
vt 0.894600 0.671692
vt 0.905190 0.834195
vt 0.724252 0.847717
vt 0.710729 0.666779
vt 0.793741 0.660576
vt 0.901566 0.629593
vt 0.898076 0.485397
vt 0.980622 0.493749
vt 0.983536 0.614157
vt 0.724600 0.624572
vt 0.725985 0.489562
vt 0.823505 0.490303
vt 0.205801 0.766223
vt 0.205801 0.947666
vt 0.100037 0.924520
vt 0.101587 0.818823
vt 0.397197 0.381186
vt 0.401848 0.646357
vt 0.246125 0.542449
vt 0.275231 0.481402
vt 0.796664 0.448755
vt 0.594768 0.455115
vt 0.633200 0.425774
vt 0.748356 0.418442
vt 0.719172 0.901061
vt 0.807393 0.901553
vt 0.806935 0.983784
vt 0.718713 0.983293
vt 0.571553 0.306959
vt 0.767678 0.265109
vt 0.759702 0.363533
vt 0.610734 0.369262
vt 0.895615 0.902045
vt 0.983836 0.902537
vt 0.983377 0.984768
vt 0.895156 0.984276
vt 0.496288 0.901237
vt 0.581388 0.904897
vt 0.574730 0.974475
vt 0.503550 0.975558
vt 0.630950 0.900570
vt 0.630492 0.982801
vt 0.670463 0.028340
vt 0.867271 0.000251
vt 0.836713 0.036229
vt 0.694017 0.059669
vt 0.885449 0.284860
vt 0.890078 0.403887
vt 0.632555 0.616052
vt 0.629960 0.508836
vt 0.979805 0.683872
vt 0.987798 0.790821
vt 0.842166 0.195291
vt 0.694044 0.207104
vt 0.678214 0.230681
vt 0.867271 0.222744
vt 0.655019 0.243946
vt 0.403655 0.242133
vt 0.444493 0.219564
vt 0.622443 0.202678
vt 0.398686 0.800328
vt 0.398686 0.981770
vt 0.339619 0.937319
vt 0.331868 0.832377
vt 0.500369 0.424885
vt 0.495171 0.291211
vt 0.638342 0.823553
vt 0.629365 0.703444
vt 0.602038 0.082644
vt 0.455113 0.085575
vt 0.623083 0.054207
vt 0.423298 0.063029
vt 0.267811 0.141446
vt 0.238989 0.219232
vt 0.207652 0.192462
vt 0.211966 0.181495
vt 0.384089 0.327978
vt 0.000251 0.305378
vt 0.153002 0.223789
vt 0.001177 0.021680
vt 0.122366 0.136285
vt 0.396491 0.000251
vt 0.132307 0.479331
vt 0.220628 0.515382
vt 0.207985 0.512605
vt 0.015583 0.621290
vt 0.169973 0.549443
vt 0.000251 0.372729
vt 0.193517 0.177515
vt 0.190841 0.189035
vt 0.218249 0.521661
vt 0.206627 0.519145
vn 0.0373 0.0000 -0.9993
vn 0.3287 0.0000 0.9444
vn -0.0373 0.0000 0.9993
vn -0.4330 -0.9012 -0.0161
vn 0.0367 0.1763 -0.9837
vn -0.0284 0.6484 0.7607
vn 0.9993 0.0000 0.0373
vn 0.0284 0.6484 -0.7607
vn -0.7607 0.6484 -0.0284
vn 0.7607 0.6484 0.0284
vn -0.9993 0.0000 -0.0373
vn 0.0000 1.0000 0.0000
vn 0.0000 -1.0000 -0.0000
vn -0.4330 0.9012 -0.0161
vn -0.4666 0.0000 0.8845
vn -0.3994 0.0000 -0.9168
vn 0.3634 -0.9315 0.0135
vn 0.3634 0.9315 0.0135
vn 0.3981 0.0000 -0.9173
vn -0.9069 0.4201 -0.0338
vn 0.0369 -0.1303 -0.9908
vn 0.9059 -0.4236 -0.0013
vn -0.0369 0.1303 0.9908
vn -1.0000 0.0000 0.0014
vn 0.8488 0.5278 0.0316
vn -0.0367 -0.1763 0.9837
vn -0.8469 -0.5317 0.0012
vn 1.0000 0.0000 -0.0014
usemtl robotColor
s off
f 1/1/1 2/2/1 4/3/1 3/4/1 34/5/1
f 8/6/2 7/7/2 27/8/2 28/9/2
f 7/7/3 8/6/3 6/10/3 5/11/3 33/12/3
f 1/13/4 5/14/4 20/15/4 17/16/4
f 34/17/5 3/18/5 40/19/5 42/20/5
f 6/21/6 8/22/6 11/23/6 12/24/6
f 11/25/7 10/26/7 15/27/7 14/28/7
f 4/29/8 2/30/8 9/31/8 10/32/8
f 2/30/9 6/21/9 12/24/9 9/31/9
f 8/22/10 4/29/10 10/32/10 11/23/10
f 9/33/11 12/34/11 13/35/11 16/36/11
f 10/26/1 9/33/1 16/36/1 15/27/1
f 13/37/12 14/38/12 15/39/12 16/40/12
f 12/41/3 11/25/3 14/28/3 13/42/3
f 17/43/13 20/44/13 24/45/13 21/46/13
f 6/21/14 2/30/14 18/47/14 19/48/14
f 5/11/15 6/10/15 19/49/15 20/50/15
f 2/2/16 1/1/16 17/51/16 18/52/16
f 24/45/11 23/53/11 22/54/11 21/46/11
f 18/55/1 17/43/1 21/46/1 22/54/1
f 19/56/12 18/55/12 22/54/12 23/53/12
f 20/44/3 19/56/3 23/53/3 24/45/3
f 25/57/12 28/58/12 32/59/12 29/60/12
f 7/61/17 3/62/17 26/63/17 27/64/17
f 4/29/18 8/22/18 28/65/18 25/66/18
f 3/4/19 4/3/19 25/67/19 26/68/19
f 30/69/7 29/60/7 32/59/7 31/70/7
f 26/71/1 25/57/1 29/60/1 30/69/1
f 28/58/3 27/72/3 31/70/3 32/59/3
f 27/72/13 26/71/13 30/69/13 31/70/13
f 38/73/3 37/74/3 45/75/3 46/76/3
f 5/77/20 1/78/20 36/79/20 37/74/20
f 1/78/21 34/80/21 35/81/21 36/79/21
f 34/80/22 33/82/22 38/73/22 35/81/22
f 33/82/23 5/77/23 37/74/23 38/73/23
f 41/83/24 42/20/24 50/84/24 49/85/24
f 3/18/25 7/86/25 39/87/25 40/19/25
f 7/86/26 33/88/26 41/83/26 39/87/26
f 33/88/27 34/17/27 42/20/27 41/83/27
f 43/89/13 46/76/13 45/75/13 44/90/13
f 36/79/1 35/81/1 43/89/1 44/90/1
f 35/81/28 38/73/28 46/76/28 43/89/28
f 37/74/11 36/79/11 44/90/11 45/75/11
f 48/91/13 47/92/13 49/85/13 50/84/13
f 39/87/3 41/83/3 49/85/3 47/92/3
f 42/20/1 40/19/1 48/91/1 50/84/1
f 40/19/7 39/87/7 47/92/7 48/91/7
